<svg width="593" height="154" viewBox="0 0 593 154" fill="none" xmlns="http://www.w3.org/2000/svg">
<path d="M128 89.8789L69.5 124.355L91.5 137.734L128 115.608V89.8789Z" fill="url(#paint0_linear)"/>
<path d="M29 131.559V106.345L86 140.822L64 153.171L29 131.559Z" fill="url(#paint1_linear)"/>
<path d="M21.5 77.0147L64 51.8006L50 42.5383L0 72.8981V115.093L21.5 127.443V77.0147Z" fill="url(#paint2_linear)"/>
<path d="M93 17.3242L72.5 30.1885L128 63.6357V38.9362L93 17.3242Z" fill="url(#paint3_linear)"/>
<path d="M0 64.1503L86 13.7222L64 0.85791L0 38.9362V64.1503Z" fill="url(#paint4_linear)"/>
<path d="M133.113 95.7453C133.113 90.6831 134.087 86.1712 136.037 82.2095C137.986 78.2478 140.785 75.1822 144.432 73.0127C148.111 70.8432 152.371 69.7585 157.213 69.7585C164.099 69.7585 169.711 71.8651 174.05 76.0783C178.421 80.2915 180.858 86.014 181.361 93.2457L181.455 96.7357C181.455 104.565 179.27 110.853 174.899 115.601C170.529 120.317 164.665 122.675 157.307 122.675C149.95 122.675 144.07 120.317 139.668 115.601C135.298 110.885 133.113 104.47 133.113 96.3584V95.7453ZM146.743 96.7357C146.743 101.578 147.655 105.288 149.478 107.866C151.302 110.413 153.912 111.686 157.307 111.686C160.609 111.686 163.187 110.429 165.042 107.913C166.897 105.367 167.825 101.311 167.825 95.7453C167.825 90.9976 166.897 87.3188 165.042 84.7092C163.187 82.0995 160.577 80.7946 157.213 80.7946C153.88 80.7946 151.302 82.0995 149.478 84.7092C147.655 87.2874 146.743 91.2963 146.743 96.7357ZM187.728 95.8396C187.728 87.8848 189.504 81.5492 193.057 76.8329C196.641 72.1166 201.531 69.7585 207.725 69.7585C212.693 69.7585 216.796 71.6135 220.034 75.3237V49.2897H233.712V121.732H221.402L220.742 116.308C217.346 120.553 212.976 122.675 207.63 122.675C201.625 122.675 196.799 120.317 193.151 115.601C189.536 110.853 187.728 104.266 187.728 95.8396ZM201.358 96.8301C201.358 101.609 202.191 105.272 203.857 107.819C205.524 110.366 207.945 111.639 211.121 111.639C215.334 111.639 218.305 109.863 220.034 106.31V86.1712C218.336 82.6183 215.397 80.8418 211.215 80.8418C204.643 80.8418 201.358 86.1712 201.358 96.8301ZM267.763 122.675C260.28 122.675 254.18 120.38 249.464 115.79C244.779 111.199 242.437 105.084 242.437 97.4432V96.1226C242.437 90.9976 243.427 86.4227 245.408 82.3982C247.389 78.3421 250.187 75.2294 253.803 73.0599C257.45 70.8589 261.601 69.7585 266.254 69.7585C273.234 69.7585 278.721 71.9594 282.714 76.3613C286.739 80.7632 288.751 87.0044 288.751 95.085V100.65H256.256C256.696 103.983 258.016 106.656 260.217 108.668C262.45 110.68 265.264 111.686 268.659 111.686C273.91 111.686 278.013 109.784 280.969 105.98L287.666 113.479C285.622 116.371 282.856 118.635 279.365 120.27C275.875 121.874 272.008 122.675 267.763 122.675ZM266.207 80.7946C263.503 80.7946 261.302 81.7064 259.604 83.5301C257.938 85.3537 256.869 87.9634 256.397 91.3592H275.357V90.2744C275.294 87.256 274.476 84.9293 272.904 83.2943C271.332 81.6278 269.1 80.7946 266.207 80.7946ZM343.036 121.732H295.967V112.394L318.181 88.718C321.231 85.3852 323.479 82.4768 324.925 79.9928C326.403 77.5089 327.142 75.1508 327.142 72.9184C327.142 69.8685 326.371 67.4789 324.831 65.7496C323.29 63.9888 321.089 63.1085 318.228 63.1085C315.147 63.1085 312.71 64.1775 310.918 66.3156C309.157 68.4222 308.276 71.2048 308.276 74.6634H294.599C294.599 70.4816 295.59 66.6614 297.57 63.2028C299.583 59.7442 302.413 57.0401 306.06 55.0907C309.707 53.1099 313.842 52.1195 318.464 52.1195C325.538 52.1195 331.025 53.8173 334.924 57.2131C338.854 60.6088 340.819 65.4037 340.819 71.5978C340.819 74.9936 339.939 78.4522 338.178 81.9737C336.417 85.4952 333.399 89.5984 329.123 94.2833L313.512 110.743H343.036V121.732ZM367.042 110.366H397.085V121.732H352.893V53.0627H367.042V110.366ZM427.835 122.675C420.352 122.675 414.252 120.38 409.536 115.79C404.851 111.199 402.508 105.084 402.508 97.4432V96.1226C402.508 90.9976 403.499 86.4227 405.48 82.3982C407.46 78.3421 410.259 75.2294 413.875 73.0599C417.522 70.8589 421.672 69.7585 426.326 69.7585C433.306 69.7585 438.792 71.9594 442.786 76.3613C446.81 80.7632 448.822 87.0044 448.822 95.085V100.65H416.327C416.767 103.983 418.088 106.656 420.289 108.668C422.521 110.68 425.335 111.686 428.731 111.686C433.982 111.686 438.085 109.784 441.041 105.98L447.738 113.479C445.694 116.371 442.927 118.635 439.437 120.27C435.947 121.874 432.08 122.675 427.835 122.675ZM426.278 80.7946C423.574 80.7946 421.374 81.7064 419.676 83.5301C418.009 85.3537 416.94 87.9634 416.469 91.3592H435.428V90.2744C435.365 87.256 434.548 84.9293 432.976 83.2943C431.404 81.6278 429.171 80.7946 426.278 80.7946ZM486.176 121.732C485.547 120.506 485.091 118.981 484.808 117.157C481.506 120.836 477.215 122.675 471.932 122.675C466.933 122.675 462.783 121.229 459.481 118.336C456.211 115.444 454.576 111.796 454.576 107.395C454.576 101.987 456.573 97.8362 460.566 94.9435C464.591 92.0509 470.392 90.5888 477.969 90.5574H484.242V87.6333C484.242 85.2751 483.629 83.3886 482.403 81.9737C481.208 80.5588 479.306 79.8514 476.696 79.8514C474.401 79.8514 472.593 80.4016 471.272 81.5021C469.983 82.6025 469.338 84.1118 469.338 86.0297H455.708C455.708 83.0742 456.62 80.3387 458.444 77.8233C460.267 75.308 462.846 73.3429 466.178 71.928C469.511 70.4816 473.253 69.7585 477.403 69.7585C483.692 69.7585 488.675 71.3463 492.354 74.5219C496.064 77.6661 497.919 82.0995 497.919 87.8219V109.941C497.951 114.783 498.627 118.446 499.947 120.93V121.732H486.176ZM474.904 112.252C476.916 112.252 478.771 111.812 480.469 110.932C482.167 110.02 483.424 108.809 484.242 107.3V98.5279H479.148C472.325 98.5279 468.694 100.886 468.254 105.602L468.206 106.404C468.206 108.102 468.804 109.501 469.999 110.602C471.193 111.702 472.828 112.252 474.904 112.252ZM537.065 83.4829C535.21 83.2314 533.575 83.1056 532.16 83.1056C527.003 83.1056 523.623 84.8506 522.02 88.3407V121.732H508.389V70.7017H521.265L521.642 76.7858C524.378 72.1009 528.166 69.7585 533.009 69.7585C534.518 69.7585 535.933 69.9628 537.253 70.3716L537.065 83.4829ZM556.213 70.7017L556.637 76.5971C560.285 72.038 565.174 69.7585 571.305 69.7585C576.713 69.7585 580.738 71.3463 583.379 74.5219C586.02 77.6976 587.372 82.4453 587.435 88.7652V121.732H573.805V89.0953C573.805 86.2027 573.176 84.1118 571.918 82.8226C570.66 81.5021 568.57 80.8418 565.645 80.8418C561.809 80.8418 558.933 82.4768 557.015 85.7467V121.732H543.384V70.7017H556.213Z" fill="url(#paint5_linear)"/>
<defs>
<linearGradient id="paint0_linear" x1="120" y1="90.3935" x2="79.8223" y2="131.435" gradientUnits="userSpaceOnUse">
<stop stop-color="#0AE6FE"/>
<stop offset="1" stop-color="#FF82D5"/>
</linearGradient>
<linearGradient id="paint1_linear" x1="29" y1="100.685" x2="76.4612" y2="151.815" gradientUnits="userSpaceOnUse">
<stop stop-color="#C85395"/>
<stop offset="1" stop-color="#752BBE"/>
</linearGradient>
<linearGradient id="paint2_linear" x1="9" y1="114.064" x2="55.7276" y2="50.4977" gradientUnits="userSpaceOnUse">
<stop stop-color="#00DAF8"/>
<stop offset="1" stop-color="#FBB1E6"/>
</linearGradient>
<linearGradient id="paint3_linear" x1="100.25" y1="17.3242" x2="100.25" y2="63.6357" gradientUnits="userSpaceOnUse">
<stop stop-color="#EE26B9"/>
<stop offset="1" stop-color="#9D1A95"/>
</linearGradient>
<linearGradient id="paint4_linear" x1="60" y1="15.2659" x2="6.12294" y2="48.8498" gradientUnits="userSpaceOnUse">
<stop stop-color="#6A1969"/>
<stop offset="1" stop-color="#2125B8"/>
</linearGradient>
<linearGradient id="paint5_linear" x1="333" y1="43.0528" x2="330.494" y2="135.449" gradientUnits="userSpaceOnUse">
<stop stop-color="#F8AEE5"/>
<stop offset="1" stop-color="#BB2DDF"/>
</linearGradient>
</defs>
</svg>
