<svg width="400" height="390" viewBox="0 0 500 500" fill="none" xmlns="http://www.w3.org/2000/svg">
<path d="M215.74 97.36H47.44V104.59H215.74V97.36Z" fill="#EBEBEB"/>
<path d="M71.91 133.03H65.36L62.73 104.58H71.91V133.03Z" fill="#EBEBEB"/>
<path d="M191.27 133.03H197.82L200.45 104.58H191.27V133.03Z" fill="#EBEBEB"/>
<path d="M62.73 104.58H71.91V114.38H63.63L62.73 104.58Z" fill="#DBDBDB"/>
<path d="M200.45 104.58L199.55 114.38H191.27V104.58H200.45Z" fill="#DBDBDB"/>
<path d="M108.39 54C100.92 64.12 93.13 75.86 91.23 88.54C91.23 88.73 91.52 88.79 91.56 88.6C92.423 85.143 93.5291 81.7512 94.87 78.45C99.78 77.1 104.6 75.99 107.17 71.11C109.74 66.23 109.47 59.57 108.97 54.11C108.93 53.82 108.54 53.81 108.39 54Z" fill="#EBEBEB"/>
<path d="M94.94 78.35C98.2284 70.6411 102.658 63.4708 108.08 57.08C108.08 57.08 108.17 57.08 108.14 57.14C104.707 61.5453 101.693 66.2626 99.14 71.23C101.61 68.72 104.32 66.47 106.66 63.81C106.66 63.76 106.78 63.81 106.74 63.89C104.41 66.68 101.87 69.71 98.84 71.78C98.03 73.27 97.21 74.78 96.38 76.28L97 76C97 76 97.07 76 97 76.06C96.76 76.18 96.54 76.3 96.3 76.4L95.11 78.53C95.09 78.65 94.87 78.51 94.94 78.35Z" fill="#A6A6A6"/>
<path d="M97.44 75.73C99.4472 74.6051 101.363 73.3245 103.17 71.9C103.17 71.9 103.29 71.9 103.24 71.97C101.488 73.4834 99.5689 74.7919 97.52 75.87C97.43 75.92 97.34 75.78 97.44 75.73Z" fill="#A6A6A6"/>
<path d="M90.42 88.42C90.4281 88.4496 90.4457 88.4757 90.4701 88.4943C90.4945 88.5128 90.5243 88.5229 90.555 88.5229C90.5857 88.5229 90.6155 88.5128 90.6399 88.4943C90.6643 88.4757 90.6819 88.4496 90.69 88.42C90.69 84.24 90.69 80.05 90.76 75.85C91.83 73.69 94.12 72.5 95.76 70.77C96.9162 69.5066 97.9228 68.114 98.76 66.62C100.679 63.053 101.856 59.1342 102.22 55.1C102.66 50.63 100.96 35.89 99.08 36.4C98.08 36.66 94.94 43.97 94.08 46.4C92.7118 50.3809 91.7077 54.4776 91.08 58.64C89.54 68.44 89.67 78.53 90.42 88.42Z" fill="#EBEBEB"/>
<path d="M90.39 70.4C90.7903 65.0884 91.6366 59.8198 92.92 54.65C94.12 49.13 95.52 43.93 98.37 39C98.37 38.91 98.55 39 98.51 39.09C96.6105 42.9156 95.1415 46.9403 94.13 51.09C94.32 50.79 94.55 50.51 94.75 50.23C94.83 50.11 95.01 50.23 94.94 50.33C94.6846 50.7777 94.3866 51.1996 94.05 51.59C93.05 55.54 92.37 59.59 91.77 63.59L91.9 63.44C91.9 63.44 91.99 63.44 91.96 63.44L91.73 63.84C91.42 65.84 91.14 67.92 90.86 69.94C94.5885 66.9425 97.5101 63.0619 99.36 58.65C97.7991 63.3567 94.7887 67.4487 90.76 70.34C90.69 70.89 90.61 71.43 90.53 71.97C90.53 72.09 90.34 72.06 90.34 71.97C90.34 71.49 90.34 70.97 90.34 70.52C90.3345 70.4973 90.3364 70.4734 90.3454 70.4518C90.3544 70.4302 90.37 70.4121 90.39 70.4Z" fill="#A6A6A6"/>
<path d="M92.1 62.75C94.9377 58.7227 97.4203 54.4567 99.52 50C99.52 50 99.63 50 99.61 50C97.943 54.6872 95.4466 59.0365 92.24 62.84C92.18 62.93 92.05 62.83 92.1 62.75Z" fill="#A6A6A6"/>
<path d="M95.8 49C96.95 47 98.17 45 99.25 42.9C99.25 42.84 99.36 42.9 99.34 42.9C98.4556 45.0663 97.3355 47.1287 96 49.05C95.9 49.16 95.73 49.07 95.8 49Z" fill="#A6A6A6"/>
<path d="M88.37 77.72C88.3036 80.4892 87.9687 83.2455 87.37 85.95C87.37 86.25 87.45 86.54 87.5 86.85C88.3621 83.8637 88.8656 80.7854 89 77.68C89.0276 77.6367 89.0422 77.5864 89.0422 77.535C89.0422 77.4836 89.0276 77.4333 89 77.39C89.1195 73.2398 88.8146 69.0882 88.09 65C86.8 57.32 83.97 50 78.62 44.2C78.576 44.1619 78.5239 44.1344 78.4677 44.1197C78.4114 44.1049 78.3525 44.1033 78.2955 44.1149C78.2385 44.1265 78.1849 44.151 78.1389 44.1865C78.0929 44.2221 78.0556 44.2678 78.03 44.32C75.87 49.82 76.62 56.32 78.46 61.85C79.4589 64.8157 80.8875 67.6189 82.7 70.17C84.54 72.72 86.88 74.9 88.37 77.72Z" fill="#EBEBEB"/>
<path d="M79.25 46.73C84.32 54.97 87.85 64.73 88.25 74.45C88.25 74.63 87.96 74.67 87.94 74.45C87.82 73.57 87.69 72.71 87.54 71.84C85.3336 69.8923 83.3965 67.6593 81.78 65.2C81.78 65.2 81.78 65.1 81.85 65.14C83.592 67.2781 85.4586 69.3116 87.44 71.23C87.08 69.0767 86.6467 66.9567 86.14 64.87C86 64.72 85.87 64.56 85.74 64.4C85.61 64.24 85.8 64.15 85.89 64.25L86.01 64.39C85.3067 61.5442 84.4352 58.7426 83.4 56C81.9957 54.5699 80.7609 52.9828 79.72 51.27H79.79C80.55 52.33 81.28 53.4 82.14 54.38C82.48 54.77 82.85 55.14 83.21 55.52C82.0376 52.5384 80.6471 49.6473 79.05 46.87C79.0408 46.8569 79.0343 46.8421 79.0308 46.8264C79.0273 46.8108 79.027 46.7946 79.0298 46.7788C79.0354 46.7469 79.0535 46.7186 79.08 46.7C79.1065 46.6814 79.1393 46.6742 79.1712 46.6798C79.2031 46.6854 79.2314 46.7035 79.25 46.73Z" fill="#A6A6A6"/>
<path d="M80.28 56.89C81.92 59.1 83.78 61.2 85.28 63.48C85.28 63.55 85.28 63.61 85.17 63.56C83.2334 61.5744 81.5537 59.3538 80.17 56.95C80.12 56.88 80.23 56.82 80.28 56.89Z" fill="#A6A6A6"/>
<path d="M85.54 64L85.61 64.07C85.61 64.07 85.61 64.2 85.53 64.15L85.46 64.08C85.46 64.08 85.49 63.94 85.54 64Z" fill="#A6A6A6"/>
<path d="M70.52 60.48C71.1223 65.0647 72.973 69.3958 75.87 73C77.0686 74.416 78.5459 75.57 80.21 76.39C82.09 77.32 84.06 78.39 86.01 79.15C86.9138 81.5086 87.5837 83.9504 88.01 86.44C88.07 86.23 88.13 86.01 88.2 85.8C87 75.11 80.06 65.94 71.18 60.06C71.1109 60.0151 71.0303 59.9911 70.9478 59.9907C70.8654 59.9903 70.7846 60.0136 70.715 60.0579C70.6455 60.1022 70.5901 60.1655 70.5556 60.2403C70.521 60.3151 70.5086 60.3983 70.52 60.48Z" fill="#EBEBEB"/>
<path d="M73.58 63.65C73.52 63.59 73.58 63.48 73.68 63.53C78.5571 67.1596 82.4486 71.9518 85 77.47C85.06 77.62 84.86 77.75 84.78 77.6C84.36 76.88 83.94 76.17 83.52 75.48C81.457 74.9191 79.5775 73.8259 78.07 72.31C78.07 72.31 78.07 72.22 78.13 72.25C78.9025 72.9574 79.7629 73.5624 80.69 74.05C81.5324 74.427 82.3935 74.7608 83.27 75.05C82.52 73.86 81.74 72.72 80.92 71.61C78.7312 70.7792 76.6786 69.6265 74.83 68.19C74.8204 68.1806 74.8143 68.1682 74.8126 68.1548C74.8109 68.1415 74.8138 68.1279 74.8207 68.1164C74.8276 68.1049 74.8382 68.096 74.8508 68.0912C74.8633 68.0864 74.8772 68.086 74.89 68.09C76.7222 69.1896 78.6115 70.191 80.55 71.09C79.3103 69.4618 77.9746 67.9091 76.55 66.44C75.86 66.07 75.16 65.71 74.49 65.32C74.49 65.32 74.49 65.19 74.49 65.21C75.0423 65.407 75.5694 65.6688 76.06 65.99C75.29 65.23 74.47 64.43 73.58 63.65Z" fill="#A6A6A6"/>
<path d="M73.77 67.35C73.8945 67.4218 74.0117 67.5055 74.12 67.6C74.12 67.6 74.12 67.67 74.07 67.65C73.948 67.5931 73.8309 67.5262 73.72 67.45C73.65 67.41 73.71 67.31 73.77 67.35Z" fill="#A6A6A6"/>
<path d="M99.16 97.36H80.88L81.78 85.37L82.12 81.47H97.75L98.1 85.37L99.16 97.36Z" fill="#DBDBDB"/>
<path d="M98.1 85.37H81.78L82.12 81.47H97.75L98.1 85.37Z" fill="#C7C7C7"/>
<path d="M99 78.26H80.88V82.27H99V78.26Z" fill="#DBDBDB"/>
<path d="M143.58 97.33V53.82H132.62V97.33H143.58Z" fill="#C7C7C7"/>
<path d="M143.59 56.27V51.49H132.63V56.27H143.59Z" fill="#DBDBDB"/>
<path d="M143.58 64.17V62.4H132.62V64.17H143.58Z" fill="#DBDBDB"/>
<path d="M143.59 91.62V86.84H132.63V91.62H143.59Z" fill="#DBDBDB"/>
<path d="M151.24 97.32V46.57H143.58V97.32H151.24Z" fill="#DBDBDB"/>
<path d="M149.67 70.87V51.35H145.07V70.87H149.67Z" fill="#EBEBEB"/>
<path d="M205.768 91.8299L169.676 56.1515L164.291 61.599L200.382 97.2774L205.768 91.8299Z" fill="#C7C7C7"/>
<path d="M196.244 84.5287L182.362 70.8057L179.129 74.0771L193.011 87.8001L196.244 84.5287Z" fill="#DBDBDB"/>
<path d="M164.24 97.33V58.78H151.24V97.33H164.24Z" fill="#A6A6A6"/>
<path d="M164.24 93.25V89.66H151.24V93.25H164.24Z" fill="#C7C7C7"/>
<path d="M164.24 87.29V85.9H151.24V87.29H164.24Z" fill="#C7C7C7"/>
<path d="M118.402 97.3534L132.692 64.0606L124.44 60.5186L110.15 93.8114L118.402 97.3534Z" fill="#A6A6A6"/>
<path d="M119.922 93.8371L121.255 90.7311L113.003 87.1892L111.67 90.2952L119.922 93.8371Z" fill="#C7C7C7"/>
<path d="M128.424 74.0376L129.757 70.9316L121.505 67.3897L120.172 70.4957L128.424 74.0376Z" fill="#C7C7C7"/>
<path d="M126.987 77.3529L127.504 76.1492L119.252 72.6072L118.735 73.811L126.987 77.3529Z" fill="#C7C7C7"/>
<path d="M379.77 286.68L431.13 286.71L431.16 220.78L393.03 220.76L379.8 233.31L379.77 286.68Z" fill="#EBEBEB"/>
<path d="M393.03 220.76L379.8 233.31L393.02 233.32L393.03 220.76Z" fill="#DBDBDB"/>
<path d="M426.15 231.83H397.59V233.52H426.15V231.83Z" fill="#DBDBDB"/>
<path d="M426.15 236.1H397.59V237.79H426.15V236.1Z" fill="#DBDBDB"/>
<path d="M426.15 240.38H397.59V242.07H426.15V240.38Z" fill="#DBDBDB"/>
<path d="M426.14 244.65H384.3V246.34H426.14V244.65Z" fill="#DBDBDB"/>
<path d="M426.14 248.92H384.3V250.61H426.14V248.92Z" fill="#DBDBDB"/>
<path d="M426.14 253.19H384.3V254.88H426.14V253.19Z" fill="#DBDBDB"/>
<path d="M426.13 257.47H384.29V259.16H426.13V257.47Z" fill="#DBDBDB"/>
<path d="M426.13 261.74H384.29V263.43H426.13V261.74Z" fill="#DBDBDB"/>
<path d="M426.13 266.01H384.29V267.7H426.13V266.01Z" fill="#DBDBDB"/>
<path d="M426.13 270.29H384.29V271.98H426.13V270.29Z" fill="#DBDBDB"/>
<path d="M426.13 274.56H384.29V276.25H426.13V274.56Z" fill="#DBDBDB"/>
<path d="M426.12 278.83H384.28V280.52H426.12V278.83Z" fill="#DBDBDB"/>
<path d="M395.8 301.73L447.16 301.76L447.2 235.83L409.06 235.81L395.83 248.36L395.8 301.73Z" fill="#DBDBDB"/>
<path d="M409.06 235.81L395.83 248.36L409.06 248.37V235.81Z" fill="#C7C7C7"/>
<path d="M442.18 246.88H413.62V248.57H442.18V246.88Z" fill="#C7C7C7"/>
<path d="M442.18 251.15H413.62V252.84H442.18V251.15Z" fill="#C7C7C7"/>
<path d="M442.18 255.43H413.62V257.12H442.18V255.43Z" fill="#C7C7C7"/>
<path d="M442.17 259.69H400.33V261.38H442.17V259.69Z" fill="#C7C7C7"/>
<path d="M442.17 263.97H400.33V265.66H442.17V263.97Z" fill="#C7C7C7"/>
<path d="M442.17 268.24H400.33V269.93H442.17V268.24Z" fill="#C7C7C7"/>
<path d="M442.17 272.51H400.33V274.2H442.17V272.51Z" fill="#C7C7C7"/>
<path d="M442.17 276.79H400.33V278.48H442.17V276.79Z" fill="#C7C7C7"/>
<path d="M442.16 281.06H400.32V282.75H442.16V281.06Z" fill="#C7C7C7"/>
<path d="M442.16 285.33H400.32V287.02H442.16V285.33Z" fill="#C7C7C7"/>
<path d="M442.16 289.61H400.32V291.3H442.16V289.61Z" fill="#C7C7C7"/>
<path d="M442.16 293.88H400.32V295.57H442.16V293.88Z" fill="#C7C7C7"/>
<path d="M411.84 316.78L463.2 316.8L463.23 250.88L425.1 250.86L411.87 263.41L411.84 316.78Z" fill="#C7C7C7"/>
<path d="M425.1 250.86L411.87 263.41L425.09 263.42L425.1 250.86Z" fill="#A6A6A6"/>
<path d="M458.22 261.93H429.66V263.62H458.22V261.93Z" fill="#A6A6A6"/>
<path d="M458.22 266.2H429.66V267.89H458.22V266.2Z" fill="#A6A6A6"/>
<path d="M458.21 270.47H429.65V272.16H458.21V270.47Z" fill="#A6A6A6"/>
<path d="M458.21 274.74H416.37V276.43H458.21V274.74Z" fill="#A6A6A6"/>
<path d="M458.21 279.02H416.37V280.71H458.21V279.02Z" fill="#A6A6A6"/>
<path d="M458.21 283.29H416.37V284.98H458.21V283.29Z" fill="#A6A6A6"/>
<path d="M458.2 287.56H416.36V289.25H458.2V287.56Z" fill="#A6A6A6"/>
<path d="M458.2 291.84H416.36V293.53H458.2V291.84Z" fill="#A6A6A6"/>
<path d="M458.2 296.11H416.36V297.8H458.2V296.11Z" fill="#A6A6A6"/>
<path d="M458.2 300.38H416.36V302.07H458.2V300.38Z" fill="#A6A6A6"/>
<path d="M458.19 304.65H416.35V306.34H458.19V304.65Z" fill="#A6A6A6"/>
<path d="M458.19 308.93H416.35V310.62H458.19V308.93Z" fill="#A6A6A6"/>
<path d="M412.45 51.26L401.92 44.73L399.92 47.95C399.626 48.4082 399.213 48.7778 398.725 49.0191C398.237 49.2604 397.693 49.3645 397.15 49.32C396.54 49.32 395.92 49.25 395.3 49.26C394.756 49.2707 394.219 49.133 393.746 48.8617C393.274 48.5904 392.885 48.1957 392.62 47.72L390.83 44.38L379.91 50.24L381.7 53.58C381.949 54.0633 382.062 54.6052 382.026 55.1477C381.991 55.6902 381.809 56.2129 381.5 56.66C381.15 57.17 380.82 57.66 380.5 58.23C380.244 58.7124 379.858 59.1138 379.387 59.3894C378.915 59.6649 378.376 59.8037 377.83 59.79L374.04 59.67L373.65 72.05L377.46 72.17C378.001 72.1929 378.525 72.3658 378.974 72.6696C379.423 72.9733 379.778 73.3959 380 73.89C380.13 74.17 380.27 74.44 380.42 74.71C380.57 74.98 380.71 75.24 380.87 75.5C381.148 75.9654 381.295 76.4976 381.295 77.04C381.295 77.5823 381.148 78.1146 380.87 78.58L378.87 81.83L389.4 88.36L391.4 85.13C391.695 84.6702 392.109 84.2996 392.599 84.0582C393.089 83.8168 393.636 83.7137 394.18 83.76C394.791 83.8199 395.406 83.84 396.02 83.82C396.563 83.8111 397.098 83.9497 397.568 84.2209C398.038 84.4921 398.426 84.8858 398.69 85.36L400.49 88.71L411.41 82.85L409.62 79.5C409.364 79.021 409.246 78.4802 409.28 77.9381C409.313 77.3959 409.497 76.8738 409.81 76.43C410.175 75.9277 410.509 75.4034 410.81 74.86C411.072 74.3805 411.46 73.9818 411.933 73.7069C412.405 73.4319 412.944 73.2913 413.49 73.3L417.29 73.42L417.69 61L413.89 60.88C413.346 60.8585 412.818 60.6863 412.366 60.3826C411.914 60.0789 411.556 59.6557 411.33 59.16C411.2 58.89 411.07 58.61 410.92 58.34C410.77 58.07 410.63 57.81 410.47 57.55C410.183 57.0857 410.031 56.5507 410.031 56.005C410.031 55.4593 410.183 54.9243 410.47 54.46L412.45 51.26ZM404.63 61.74C405.579 63.5093 405.981 65.5202 405.787 67.5183C405.593 69.5164 404.81 71.4121 403.539 72.9655C402.267 74.5189 400.563 75.6604 398.643 76.2455C396.722 76.8306 394.672 76.8331 392.75 76.2526C390.828 75.6722 389.122 74.5348 387.846 72.9845C386.571 71.4341 385.784 69.5404 385.585 67.5427C385.386 65.5451 385.783 63.5332 386.728 61.7617C387.672 59.9901 389.121 58.5383 390.89 57.59C393.262 56.3185 396.043 56.0414 398.619 56.8197C401.196 57.5979 403.358 59.3678 404.63 61.74Z" fill="#EBEBEB"/>
<path d="M84.25 212.16L79.91 204.64L77.61 206C77.2811 206.196 76.9027 206.294 76.5197 206.282C76.1368 206.269 75.7655 206.147 75.45 205.93C75.086 205.692 74.7088 205.475 74.32 205.28C73.9795 205.11 73.6927 204.849 73.4915 204.526C73.2903 204.203 73.1824 203.831 73.18 203.45V200.79H64.5V203.45C64.4976 203.831 64.3898 204.203 64.1885 204.526C63.9873 204.849 63.7005 205.11 63.36 205.28C62.9713 205.475 62.594 205.692 62.23 205.93C61.9145 206.147 61.5432 206.269 61.1603 206.282C60.7774 206.294 60.3989 206.196 60.07 206L57.77 204.67L53.43 212.19L55.74 213.52C56.0669 213.717 56.3331 214.001 56.5095 214.34C56.6859 214.678 56.7656 215.059 56.74 215.44C56.74 215.65 56.74 215.87 56.74 216.08C56.74 216.29 56.74 216.51 56.74 216.72C56.766 217.1 56.6863 217.479 56.5098 217.816C56.3333 218.153 56.0669 218.435 55.74 218.63L53.42 219.96L57.76 227.48L60.06 226.15C60.3936 225.961 60.7732 225.868 61.1563 225.883C61.5395 225.897 61.9112 226.017 62.23 226.23C62.59 226.46 62.96 226.68 63.35 226.88C63.6905 227.05 63.9773 227.311 64.1785 227.634C64.3798 227.957 64.4876 228.329 64.49 228.71V231.37H73.17V228.71C73.1724 228.329 73.2803 227.957 73.4815 227.634C73.6827 227.311 73.9695 227.05 74.31 226.88C74.7 226.68 75.07 226.46 75.43 226.23C75.7488 226.017 76.1205 225.897 76.5037 225.883C76.8868 225.868 77.2664 225.961 77.6 226.15L79.9 227.48L84.24 219.96L81.93 218.63C81.6032 218.435 81.3367 218.153 81.1602 217.816C80.9837 217.479 80.904 217.1 80.93 216.72C80.93 216.51 80.93 216.3 80.93 216.08C80.93 215.86 80.93 215.65 80.93 215.44C80.9044 215.059 80.9842 214.678 81.1606 214.34C81.3369 214.001 81.6032 213.717 81.93 213.52L84.25 212.16ZM76 216.05C75.998 217.456 75.5794 218.829 74.7969 219.997C74.0144 221.165 72.9033 222.075 71.604 222.612C70.3046 223.148 68.8753 223.288 67.4968 223.012C66.1183 222.737 64.8523 222.059 63.859 221.064C62.8656 220.069 62.1894 218.802 61.9159 217.423C61.6424 216.044 61.7838 214.615 62.3222 213.317C62.8606 212.018 63.7719 210.908 64.9409 210.128C66.11 209.347 67.4842 208.93 68.89 208.93C69.8246 208.93 70.7499 209.114 71.6132 209.472C72.4765 209.83 73.2607 210.355 73.9211 211.016C74.5814 211.677 75.1049 212.462 75.4617 213.326C75.8184 214.19 76.0013 215.115 76 216.05Z" fill="#EBEBEB"/>
<path d="M446.57 95.41L442.23 87.89L439.93 89.22C439.598 89.4084 439.221 89.5016 438.84 89.4893C438.459 89.4769 438.089 89.3595 437.77 89.15C437.408 88.9083 437.031 88.6912 436.64 88.5C436.299 88.3275 436.013 88.0645 435.812 87.74C435.611 87.4154 435.503 87.0418 435.5 86.66V84H426.82V86.65C426.817 87.0318 426.709 87.4054 426.508 87.73C426.307 88.0545 426.021 88.3175 425.68 88.49C425.289 88.6812 424.912 88.8983 424.55 89.14C424.231 89.3495 423.861 89.4669 423.48 89.4793C423.099 89.4916 422.722 89.3984 422.39 89.21L420.09 87.88L415.75 95.4L418.06 96.73C418.388 96.9266 418.654 97.21 418.831 97.5489C419.007 97.8877 419.087 98.2689 419.06 98.65C419.06 98.86 419.06 99.07 419.06 99.29C419.06 99.51 419.06 99.71 419.06 99.92C419.086 100.3 419.006 100.679 418.83 101.016C418.653 101.353 418.387 101.635 418.06 101.83L415.74 103.17L420.08 110.69L422.38 109.36C422.714 109.171 423.093 109.078 423.476 109.093C423.859 109.107 424.231 109.227 424.55 109.44C424.911 109.675 425.285 109.888 425.67 110.08C426.011 110.253 426.297 110.515 426.498 110.84C426.699 111.165 426.807 111.538 426.81 111.92V114.58H435.49V111.92C435.493 111.538 435.601 111.165 435.802 110.84C436.003 110.515 436.289 110.253 436.63 110.08C437.015 109.888 437.389 109.675 437.75 109.44C438.069 109.227 438.441 109.107 438.824 109.093C439.207 109.078 439.586 109.171 439.92 109.36L442.22 110.69L446.56 103.17L444.25 101.84C443.923 101.645 443.657 101.363 443.48 101.026C443.304 100.689 443.224 100.31 443.25 99.93C443.25 99.72 443.25 99.5 443.25 99.29C443.25 99.08 443.25 98.86 443.25 98.65C443.222 98.2687 443.301 97.8871 443.477 97.548C443.654 97.209 443.922 96.9257 444.25 96.73L446.57 95.41ZM438.27 99.3C438.268 100.706 437.849 102.079 437.067 103.247C436.284 104.415 435.173 105.325 433.874 105.862C432.575 106.398 431.145 106.538 429.767 106.262C428.388 105.987 427.122 105.309 426.129 104.314C425.136 103.319 424.459 102.052 424.186 100.673C423.912 99.2945 424.054 97.8654 424.592 96.5668C425.131 95.2682 426.042 94.1584 427.211 93.3776C428.38 92.5967 429.754 92.18 431.16 92.18C432.095 92.1787 433.021 92.362 433.885 92.7195C434.749 93.077 435.533 93.6015 436.194 94.2631C436.855 94.9246 437.378 95.7101 437.734 96.5745C438.091 97.4389 438.273 98.3651 438.27 99.3Z" fill="#EBEBEB"/>
<path d="M105.19 442.11C133.583 442.11 156.6 437.678 156.6 432.21C156.6 426.742 133.583 422.31 105.19 422.31C76.797 422.31 53.78 426.742 53.78 432.21C53.78 437.678 76.797 442.11 105.19 442.11Z" fill="#EBEBEB"/>
<path d="M58.78 402.76H193.35L166.52 246.67H65.89L58.78 402.76Z" fill="#DBDBDB"/>
<path d="M58.78 402.76H70.58L77.2 246.67H65.89L58.78 402.76Z" fill="#A6A6A6"/>
<path d="M177 267.22C185.79 305.51 204 351.41 211.77 358.86C221.6 368.29 286.63 385.56 289.87 385.91C297.87 386.73 313.99 328.91 305.44 327.67C292.44 325.79 245.08 323.22 242.24 320.3C239.4 317.38 219.32 292.06 198.77 263.59C184.59 243.92 171.55 243.46 177 267.22Z" fill="#EB9481"/>
<path d="M283.42 382.8C284.42 383.28 297.97 390.12 306.37 392.55C312.64 394.37 330.82 399.11 333.51 392.41C335.34 387.84 324.98 383.79 317.71 380.77C313.89 379.17 309.17 375.16 310.3 372.7C312.3 368.4 322.12 372.7 328.6 376.49C341.13 383.77 357.82 396.87 365.48 390.49C368.37 388.08 365.01 383.71 360.09 379.42C368.09 384.42 376.57 388.52 379.89 385.98C381.79 384.53 381.89 382.54 380.82 380.27C383.29 381.07 385.46 380.92 386.98 379.27C389.57 376.56 388.31 372.56 385.47 368.45C385.958 368.398 386.427 368.23 386.837 367.96C387.248 367.691 387.588 367.327 387.83 366.9C393.31 358.53 365.83 334.5 356.34 332.26C328.34 325.61 298.93 326.85 298.93 326.85C288 335.69 283.4 382.78 283.42 382.8Z" fill="#EB9481"/>
<path d="M324.53 357.06C331.185 358.106 337.542 360.554 343.18 364.24C350.26 368.92 354.96 374.39 360.91 379.91C360.942 379.939 360.961 379.98 360.963 380.023C360.965 380.066 360.949 380.108 360.92 380.14C360.891 380.172 360.85 380.191 360.807 380.193C360.764 380.195 360.722 380.179 360.69 380.15C357.86 377.53 346.12 367.68 343.08 365.44C337.598 361.311 331.247 358.486 324.51 357.18C324.494 357.177 324.48 357.168 324.47 357.155C324.461 357.142 324.457 357.126 324.46 357.11C324.463 357.094 324.472 357.08 324.485 357.071C324.498 357.061 324.514 357.057 324.53 357.06Z" fill="#263238"/>
<path d="M329.74 345.2C337.09 347.2 344.61 349.2 351.43 352.72C358.9 356.52 364.74 362.72 370.48 368.72C373.927 372.3 377.293 375.967 380.58 379.72C380.72 379.88 380.51 380.13 380.36 379.97C374.54 373.797 368.54 367.797 362.36 361.97C356.651 356.553 349.929 352.316 342.58 349.5C338.37 347.9 334.05 346.62 329.74 345.35C329.63 345.31 329.66 345.18 329.74 345.2Z" fill="#263238"/>
<path d="M337.59 334.83C344.73 336.29 350.95 337.55 357.28 341.37C365.64 346.44 373.72 354.97 376.56 357.99C379.69 361.34 382.7 364.78 385.67 368.27C385.79 368.41 385.54 368.62 385.42 368.48C378.635 360.829 371.36 353.627 363.64 346.92C360.019 343.665 355.913 340.993 351.47 339C346.967 337.23 342.32 335.852 337.58 334.88C337.58 334.88 337.56 334.82 337.59 334.83Z" fill="#263238"/>
<path d="M294.42 324.55L274.42 387.91C274.42 387.91 220.28 372.45 210.42 361.78C200.56 351.11 182.23 296 176.86 269.3C171.49 242.6 184.99 243.25 197.4 260.09C209.81 276.93 240.71 317.74 242.4 318.63C244.09 319.52 294.42 324.55 294.42 324.55Z" fill="#58579E"/>
<path d="M269.23 359.76C271.65 352.29 274.13 344.84 276.23 337.28C277.45 332.98 278.69 328.69 279.87 324.38C279.87 324.22 279.64 324.12 279.58 324.28C276.86 331.68 274.14 339.11 271.75 346.64C269.36 354.17 266.93 361.59 264.65 369.11C263.35 373.39 262.19 377.68 261.16 382.04C261.166 382.055 261.176 382.069 261.189 382.078C261.203 382.087 261.219 382.092 261.235 382.092C261.251 382.092 261.267 382.087 261.281 382.078C261.294 382.069 261.304 382.055 261.31 382.04C264.33 374.77 266.79 367.28 269.23 359.76Z" fill="#263238"/>
<path opacity="0.1" d="M247.12 379.19L244.72 378.35C238.72 376.2 232.53 373.85 227.05 371.46L225.79 370.91C223.42 369.85 221.19 368.79 219.17 367.73L218.17 367.17C215.794 365.948 213.555 364.476 211.49 362.78C211.3 362.61 211.11 362.44 210.94 362.27C210.77 362.1 210.59 361.93 210.44 361.77C200.54 351.1 182.28 296 176.91 269.29C176.84 268.94 176.77 268.56 176.7 268.17C176.34 266.17 176.02 263.61 175.76 260.88C175.26 252.07 177.86 248.15 181.92 248.2C199.15 282.36 236.47 358.27 247.12 379.19Z" fill="black"/>
<path d="M226.77 402.76H89.87C88.36 400 110.8 280.08 157 246.31C167.24 238.82 185.41 243.64 190.47 250.92C215.84 287.53 226.77 402.76 226.77 402.76Z" fill="#58579E"/>
<path d="M205 282.82C206.26 287.367 207.477 291.927 208.65 296.5C208.5 294.5 208.28 292.5 208.02 290.5C208.02 290.39 208.19 290.34 208.21 290.5C208.703 292.961 208.977 295.461 209.03 297.97C210.43 303.47 211.763 309 213.03 314.56C215.37 325.21 217.46 335.93 219.19 346.69C220.19 352.76 220.92 358.87 221.95 364.93C221.95 365.04 221.79 365.09 221.77 364.93C220.82 359.56 219.56 354.22 218.39 348.93C217.22 343.64 216.08 338.31 215 333C212.78 322.32 210.44 311.67 208.24 301C207 295 205.85 288.95 204.61 282.93C204.615 282.887 204.633 282.847 204.662 282.814C204.69 282.781 204.727 282.758 204.769 282.746C204.81 282.734 204.854 282.735 204.895 282.748C204.937 282.761 204.973 282.786 205 282.82Z" fill="#263238"/>
<path d="M141.45 258.16C119.34 281.83 66.76 370.67 83.81 387.05C100.86 403.43 195.46 381.38 222 368.72C229.9 364.96 199.86 315.67 190.57 314.52C182.84 313.52 143.29 331.65 142.15 329.38C140.85 326.81 149.84 310.31 159.35 275.95C170.36 236.33 151.21 247.7 141.45 258.16Z" fill="#EB9481"/>
<path d="M229.89 298.61C249.1 295.94 254.44 298.2 269.46 287.33C279.31 280.2 288.09 283.43 282.46 294.76C273.27 313.3 249.2 321.96 240 322.56L229.89 298.61Z" fill="#EB9481"/>
<path d="M178.85 317.11C178.85 317.11 200.44 305.11 220.63 300.24C234.63 296.87 265.79 292.92 295.63 323.7C302.71 331 307.63 346.43 291.73 338.7C280.44 333.22 274.94 326.33 267.79 324.33C267.79 324.33 271.71 344.69 264.12 351.5C260.72 354.5 251.27 362.63 243.01 367.87C241.793 366.721 240.65 365.495 239.59 364.2C239.59 364.2 231.9 369.89 217.42 368.51L178.85 317.11Z" fill="#EB9481"/>
<path d="M234.47 299.15C241.15 302.64 255.18 310.25 264.47 320.47C274.81 331.82 291.66 356.47 283.2 364.02C277 369.55 269.74 360.71 269.74 360.71C269.74 360.71 274.56 372.36 267.86 376.14C261.76 379.57 256.55 372.39 256.55 372.39C256.55 372.39 258.26 379.97 251.75 382.14C243.91 384.77 241.62 368.46 231.39 364.26C229.1 363.31 234.47 299.15 234.47 299.15Z" fill="#EB9481"/>
<path d="M250.67 329.39C256.41 333.7 266.94 346.81 269.85 360.39C269.92 360.7 269.72 360.92 269.6 360.65C264.552 349.529 258.172 339.063 250.6 329.48C250.599 329.469 250.599 329.459 250.602 329.449C250.605 329.438 250.61 329.429 250.616 329.42C250.623 329.412 250.631 329.405 250.64 329.4C250.649 329.395 250.659 329.391 250.67 329.39Z" fill="#263238"/>
<path d="M239.51 340.16C244.08 344.38 254.33 358.39 256.81 372.26C256.87 372.57 256.66 372.77 256.55 372.5C252.067 361.138 246.314 350.319 239.4 340.25C239.35 340.18 239.45 340.11 239.51 340.16Z" fill="#263238"/>
<path d="M267.8 324.2C274.06 326.05 278.14 329.12 283.42 332.79C286.012 334.641 288.706 336.344 291.49 337.89C294.04 339.27 297.8 341.36 300.49 339.2C302.01 338 301.98 335.81 301.65 334.08C300.885 331.54 299.724 329.137 298.21 326.96C298.15 326.88 298.29 326.77 298.35 326.86C299.821 328.836 301.081 330.961 302.11 333.2C302.789 334.735 302.988 336.44 302.68 338.09C301.76 341.54 297.68 341.99 294.8 341.09C293.085 340.462 291.437 339.664 289.88 338.71C288.36 337.84 286.88 336.89 285.43 335.91C282.43 333.91 279.6 331.72 276.65 329.68C273.764 327.751 270.758 326.007 267.65 324.46C267.59 324.35 267.68 324.17 267.8 324.2Z" fill="#263238"/>
<path d="M280.91 346.23C279.29 342.66 270.52 327.79 267.67 324.35C267.659 324.332 267.654 324.311 267.657 324.29C267.66 324.269 267.67 324.25 267.685 324.236C267.701 324.222 267.721 324.213 267.742 324.212C267.762 324.211 267.783 324.217 267.8 324.23C272.68 328.85 280.53 341.14 282.35 345.08C284.17 349.02 286.24 353.94 286.24 358.28C286.24 364.82 281.9 366.06 280.3 366.38C278.394 366.719 276.429 366.398 274.73 365.47C272.759 364.245 271.058 362.633 269.73 360.73C269.66 360.64 269.78 360.51 269.85 360.6C272.12 363.18 275.85 365.72 279.44 365.26C280.226 365.18 280.988 364.945 281.683 364.569C282.378 364.193 282.992 363.684 283.49 363.07C284.447 361.491 284.802 359.62 284.49 357.8C284.15 353.75 282.58 349.9 280.91 346.23Z" fill="#263238"/>
<path d="M178.85 317.11L209.13 380.81C209.13 380.81 90.69 407.42 80.47 386.81C70.25 366.2 116.25 285.48 137 262C157.75 238.52 167 245.38 161.49 270.65C155.98 295.92 142.53 330 142.53 330L178.85 317.11Z" fill="#58579E"/>
<path d="M106.53 346.93C112.035 343.139 117.807 339.75 123.8 336.79C129.733 333.884 135.874 331.421 142.17 329.42C145.76 328.23 149.38 327.23 153.01 326.19C153.12 326.19 153.16 326.33 153.06 326.37C146.739 328.415 140.541 330.825 134.5 333.59C128.5 336.257 122.527 339.05 116.58 341.97C113.23 343.61 109.96 345.41 106.66 347.17C106.51 347.25 106.39 347 106.53 346.93Z" fill="#263238"/>
<path d="M178.54 316.92C177.94 317.08 145.54 327.77 144.54 328.27C144.67 327.78 150.48 310.56 151.35 308.04C151.44 307.78 151.51 307.53 151.6 307.28C152.19 306.15 152.78 305.03 153.33 303.89C154.03 302.41 154.72 300.94 155.41 299.46C155.41 299.46 155.36 299.38 155.34 299.46C154.58 300.9 153.827 302.343 153.08 303.79C152.73 304.45 152.41 305.13 152.08 305.79C152.65 304.01 153.19 302.22 153.74 300.43C154.61 297.57 155.39 294.69 156.16 291.8C156.16 291.71 156.05 291.68 156.02 291.8C154.3 296.8 152.42 301.8 150.69 306.8C148.96 311.8 142.29 330.31 142.34 330.29C142.39 330.27 178.02 317.7 178.71 317.42C178.776 317.397 178.831 317.349 178.862 317.287C178.893 317.224 178.898 317.151 178.875 317.085C178.852 317.019 178.804 316.964 178.742 316.933C178.679 316.902 178.606 316.897 178.54 316.92Z" fill="#263238"/>
<path d="M180.72 358.48C177.39 351.37 174.11 344.23 170.51 337.24C168.51 333.24 166.44 329.29 164.36 325.34C164.28 325.19 164.02 325.34 164.08 325.46C167.15 332.73 170.24 340.01 173.63 347.14C177.02 354.27 180.33 361.35 183.8 368.4C185.8 372.4 187.86 376.34 190.08 380.23C190.08 380.31 190.25 380.23 190.22 380.16C187.4 372.79 184.08 365.64 180.72 358.48Z" fill="#263238"/>
<path d="M210.66 381.81C209.48 379.81 207.98 377.02 206.71 375.11C206.38 374.61 205.99 374.71 206.26 375.24C207.16 377.02 207.91 379.02 208.8 380.85C207.14 381.18 205.47 381.48 203.8 381.85L198.05 383C194.277 383.767 190.503 384.503 186.73 385.21C179.083 386.623 171.417 387.873 163.73 388.96C148.286 391.221 132.735 392.679 117.14 393.33C112.78 393.49 108.41 393.57 104.05 393.51C99.7456 393.522 95.4434 393.315 91.16 392.89C91.05 392.89 91.02 393.07 91.16 393.1C94.8528 393.877 98.601 394.362 102.37 394.55C106.323 394.75 110.277 394.83 114.23 394.79C122.1 394.7 129.97 394.19 137.81 393.47C153.35 392.043 168.817 389.96 184.21 387.22C188.523 386.46 192.823 385.65 197.11 384.79C199.27 384.35 201.43 383.92 203.59 383.44C205.75 382.96 210.86 382.14 210.66 381.81Z" fill="#263238"/>
<path d="M182.76 275.1C174.5 275.05 163.99 259.87 161.05 248.91C160.85 248.16 170.05 222.31 171.32 217C171.58 215.91 202.67 233.17 202.67 233.17C202.67 233.17 196.67 243.51 194.51 252.79C194.33 253.56 190.74 275.14 182.76 275.1Z" fill="#EB9481"/>
<path d="M190.7 254.75C191.781 255.045 192.885 255.246 194 255.35C194.13 254.7 194.25 254.15 194.33 253.73C194.327 253.71 194.327 253.69 194.33 253.67C194.325 253.623 194.325 253.577 194.33 253.53C194.33 253.37 194.39 253.19 194.43 253.02C194.422 252.987 194.422 252.953 194.43 252.92V252.78C194.936 250.709 195.56 248.669 196.3 246.67C197.753 242.798 199.453 239.024 201.39 235.37C201.55 235.06 201.69 234.79 201.83 234.55C202.24 233.78 202.5 233.32 202.56 233.2L201.74 232.73L200.65 232.13H200.6L199.87 231.74L198.97 231.23C198.71 231.1 198.42 230.94 198.14 230.78L197.98 230.69C197.64 230.5 197.27 230.31 196.89 230.09L196.64 229.96L195.56 229.36L194.99 229.06L193.23 228.06L191.89 227.33L190.75 226.71L186.85 224.61L185.59 223.93C184.05 223.11 182.54 222.31 181.09 221.56C180.76 221.39 180.44 221.21 180.09 221.06L179.45 220.72L178.69 220.33L177.04 219.49L176.04 218.99C175.55 218.74 175.09 218.52 174.66 218.32C174.44 218.2 174.23 218.11 174.03 218.02C173.44 217.74 172.93 217.51 172.5 217.34L172.23 217.22C172 226.22 172.69 249.93 190.7 254.75Z" fill="#263238"/>
<path d="M180.65 177C173.29 187.36 168.28 222.7 174 232.86C182.3 247.59 201.43 255.11 215.34 243.86C228.82 232.96 234.54 186.78 227.63 176.98C217.45 162.53 191.53 161.68 180.65 177Z" fill="#EB9481"/>
<path d="M207 208.18C207 208.08 206.8 208.26 206.79 208.36C206.51 210.75 205.79 213.44 203.53 213.91C203.46 213.91 203.45 214.05 203.53 214.05C206.22 214.07 207.13 210.48 207 208.18Z" fill="#263238"/>
<path d="M205.25 205.38C201.47 204.53 200.04 212.16 203.55 212.95C207.06 213.74 208.42 206.09 205.25 205.38Z" fill="#263238"/>
<path d="M220 211C220 210.91 220.16 211.15 220.14 211.24C219.62 213.59 219.43 216.37 221.42 217.55C221.48 217.55 221.42 217.71 221.42 217.68C218.83 216.8 219.13 213.11 220 211Z" fill="#263238"/>
<path d="M222.57 208.9C226.42 209.32 225.29 217 221.72 216.61C218.15 216.22 219.34 208.54 222.57 208.9Z" fill="#263238"/>
<path d="M202.89 201.33C203.948 201.222 204.999 201.058 206.04 200.84C207.173 200.821 208.269 200.431 209.16 199.73C209.395 199.454 209.533 199.109 209.551 198.747C209.569 198.385 209.467 198.028 209.26 197.73C208.31 196.5 206.77 196.38 205.31 196.56C203.831 196.697 202.456 197.378 201.45 198.47C201.234 198.732 201.099 199.051 201.062 199.388C201.024 199.725 201.085 200.066 201.238 200.369C201.391 200.672 201.628 200.924 201.921 201.095C202.215 201.266 202.551 201.347 202.89 201.33Z" fill="#263238"/>
<path d="M226.24 205.61C225.252 205.212 224.287 204.758 223.35 204.25C222.268 203.915 221.326 203.233 220.67 202.31C220.52 201.98 220.484 201.609 220.568 201.257C220.651 200.904 220.849 200.589 221.13 200.36C222.39 199.45 223.9 199.77 225.26 200.36C226.642 200.907 227.771 201.948 228.43 203.28C228.561 203.592 228.599 203.935 228.539 204.268C228.479 204.601 228.323 204.91 228.092 205.156C227.86 205.403 227.562 205.577 227.233 205.657C226.904 205.738 226.559 205.721 226.24 205.61Z" fill="#263238"/>
<path d="M200.1 229.55C200.56 230.21 200.99 231.08 201.83 231.31C202.712 231.455 203.615 231.414 204.48 231.19C204.499 231.179 204.521 231.177 204.541 231.182C204.551 231.185 204.561 231.19 204.569 231.196C204.578 231.203 204.585 231.211 204.59 231.22C204.595 231.229 204.599 231.239 204.6 231.25C204.601 231.26 204.601 231.271 204.598 231.281C204.595 231.291 204.59 231.301 204.584 231.309C204.577 231.318 204.569 231.325 204.56 231.33C204.136 231.733 203.611 232.013 203.041 232.142C202.47 232.27 201.876 232.242 201.32 232.06C200.863 231.841 200.481 231.494 200.219 231.06C199.958 230.627 199.83 230.126 199.85 229.62C199.84 229.47 200 229.46 200.1 229.55Z" fill="#263238"/>
<path d="M203.91 222.94C204.334 223.988 204.97 224.938 205.779 225.728C206.588 226.518 207.552 227.131 208.61 227.53C209.53 227.889 210.496 228.115 211.48 228.2C211.666 228.219 211.854 228.219 212.04 228.2H212.58C212.709 228.197 212.834 228.152 212.937 228.073C213.039 227.994 213.114 227.884 213.15 227.76C213.16 227.677 213.16 227.593 213.15 227.51V227.3C213.54 225.49 213.88 222.69 213.88 222.69C214.49 223.14 217.59 225.3 217.72 224.34C218.72 216.34 219.83 207.54 219.15 199.41C219.139 199.358 219.111 199.312 219.07 199.279C219.029 199.246 218.978 199.228 218.925 199.228C218.872 199.228 218.821 199.246 218.78 199.279C218.739 199.312 218.711 199.358 218.7 199.41C217.44 207.02 217.52 214.8 216.37 222.46C215.269 221.676 214.064 221.05 212.79 220.6C212.52 220.6 212.23 226.02 211.99 226.82V226.9C208.86 226.72 206.73 225.37 204.15 222.76C204 222.6 203.8 222.73 203.91 222.94Z" fill="#263238"/>
<path d="M210.58 227.08C209.337 228.19 207.828 228.962 206.2 229.32C205.308 229.492 204.385 229.38 203.56 229C201.77 228.15 202.05 226.41 202.67 225C203.011 224.25 203.437 223.542 203.94 222.89C205.648 224.961 207.976 226.429 210.58 227.08Z" fill="#263238"/>
<path d="M206.2 229.32C205.308 229.492 204.385 229.38 203.56 229C201.77 228.15 202.05 226.41 202.67 225C204.65 225.58 206.4 227.33 206.2 229.32Z" fill="#FF99BA"/>
<path d="M199.48 218.07C197.647 217.481 196.016 216.389 194.773 214.92C193.529 213.45 192.723 211.66 192.446 209.755C192.168 207.85 192.431 205.905 193.204 204.142C193.977 202.379 195.23 200.867 196.819 199.78C198.408 198.693 200.27 198.074 202.194 197.993C204.117 197.911 206.025 198.371 207.7 199.32C209.375 200.269 210.751 201.669 211.67 203.361C212.589 205.052 213.015 206.968 212.9 208.89C212.728 211.612 211.484 214.154 209.441 215.961C207.398 217.768 204.722 218.692 202 218.53C201.145 218.476 200.299 218.322 199.48 218.07ZM205.35 199.78C204.643 199.555 203.911 199.418 203.17 199.37C200.907 199.232 198.677 199.961 196.933 201.409C195.189 202.858 194.063 204.916 193.784 207.166C193.505 209.415 194.093 211.687 195.43 213.518C196.767 215.348 198.751 216.601 200.979 217.02C203.207 217.439 205.511 216.993 207.421 215.773C209.332 214.553 210.706 212.65 211.263 210.453C211.82 208.256 211.518 205.929 210.42 203.946C209.321 201.963 207.508 200.473 205.35 199.78Z" fill="#58579E"/>
<path d="M222.68 222.49C218.93 221.28 216.76 216.35 217.79 211.08C218.243 208.554 219.473 206.232 221.31 204.44C222.052 203.622 222.992 203.01 224.04 202.662C225.087 202.315 226.207 202.244 227.29 202.456C228.374 202.668 229.384 203.157 230.223 203.874C231.062 204.591 231.702 205.513 232.08 206.55C233.107 208.903 233.369 211.52 232.83 214.03C231.74 219.6 227.48 223.47 223.34 222.65C223.11 222.61 222.9 222.55 222.68 222.49ZM227.53 203.94C227.366 203.886 227.199 203.843 227.03 203.81C226.16 203.679 225.271 203.759 224.439 204.045C223.607 204.33 222.856 204.812 222.25 205.45C220.623 207.044 219.536 209.107 219.14 211.35C218.2 216.17 220.19 220.64 223.6 221.35C227.01 222.06 230.54 218.64 231.48 213.81C231.966 211.587 231.739 209.267 230.83 207.18C230.541 206.437 230.097 205.764 229.528 205.206C228.959 204.647 228.278 204.216 227.53 203.94Z" fill="#58579E"/>
<path d="M212.33 210L211.66 208.79C213.45 207.79 217.33 206.79 219.28 209.89L218.11 210.62C216.37 207.82 212.49 209.91 212.33 210Z" fill="#58579E"/>
<path d="M166.83 203.78L165.75 202.93C166.15 202.42 169.75 198.02 172.84 198.12C175.75 198.22 193.51 203.46 194.27 203.69L193.88 205.01C188.79 203.5 175.04 199.57 172.8 199.5C170.75 199.43 167.79 202.57 166.83 203.78Z" fill="#58579E"/>
<path d="M229.23 193.25C215.76 198.17 203.13 182.25 203.13 182.25C201.511 184.5 199.208 186.168 196.565 187.004C193.921 187.84 191.079 187.8 188.46 186.89C188.46 186.89 181.23 205.72 176.13 204.37C168.35 202.37 172.72 175.25 176.51 170.68C180.3 166.11 187.25 166.48 187.25 166.48C187.25 166.48 188.77 162.57 194.53 160.12C200.9 157.41 217.86 167.61 217.86 167.61C219.539 165.423 221.707 163.659 224.19 162.46C224.795 162.157 225.454 161.98 226.129 161.939C226.804 161.898 227.481 161.995 228.117 162.223C228.754 162.451 229.337 162.806 229.833 163.266C230.328 163.726 230.725 164.282 231 164.9C229.658 166.081 228.602 167.551 227.91 169.2C225.53 174.65 230.17 175.83 231.45 170.67C232.003 168.756 231.843 166.706 231 164.9C234.16 162.12 238.17 161.98 240 164.37C243.22 168.69 240.44 189.17 229.23 193.25Z" fill="#263238"/>
<path d="M178.72 206.5C178.72 206.5 174.51 193.3 168.72 194.5C162.93 195.7 163.77 213.16 168.88 217.1C169.499 217.651 170.224 218.072 171.01 218.336C171.796 218.6 172.628 218.703 173.454 218.637C174.281 218.572 175.086 218.34 175.821 217.956C176.556 217.571 177.205 217.042 177.73 216.4L178.72 206.5Z" fill="#EB9481"/>
<path d="M169.11 199.48C169.092 199.477 169.073 199.48 169.056 199.488C169.039 199.497 169.025 199.51 169.017 199.527C169.008 199.543 169.004 199.562 169.007 199.58C169.009 199.599 169.017 199.616 169.03 199.63C172.57 202.53 173.54 206.95 173.82 211.3C173.08 209.43 171.69 208.1 169.24 208.91C169.11 208.91 169.16 209.15 169.24 209.16C170.023 209.155 170.789 209.392 171.432 209.84C172.075 210.287 172.563 210.923 172.83 211.66C173.267 212.894 173.569 214.171 173.73 215.47C173.81 215.89 174.52 215.9 174.51 215.47V215.36C176.26 210.2 174.49 201.73 169.11 199.48Z" fill="#263238"/>
<path d="M194.92 250.89L189.44 266.77L162.84 242L155.84 249.95C155.84 249.95 179.57 289.59 179.72 287.8L190.18 270.68L199.55 282.73L199.15 257.68L194.92 250.89Z" fill="#EBEBEB"/>
<path d="M200 268.06C199.7 263.18 199.95 262.81 199.42 257.94C199.42 257.77 199.14 257.69 199.09 257.94C198.09 262.65 198.92 276.76 198.88 281.24L198.83 281.19C198.34 280.67 190.31 270.55 190.2 270.71C188.43 273.39 180.15 285.92 179.74 287.04C175.99 280.74 161.6 257.85 157.16 251.89C157.137 251.85 157.1 251.821 157.056 251.809C157.012 251.797 156.965 251.802 156.925 251.825C156.885 251.848 156.856 251.885 156.844 251.929C156.832 251.973 156.837 252.02 156.86 252.06C160.17 258.71 179.21 289.53 179.5 289.45C179.7 289.6 189.44 274.22 190.34 271.36C192.08 273.52 200.2 284.9 200.24 284.18C200.436 278.806 200.356 273.426 200 268.06Z" fill="#263238"/>
<path d="M47.44 402.76L98.08 402.51L148.72 402.43L250 402.26L351.28 402.42L401.92 402.51L452.56 402.76L401.92 403L351.28 403.09L250 403.26L148.72 403.09L98.08 403L47.44 402.76Z" fill="#263238"/>
<path d="M357.94 400.14H220.37V406.31H357.94V400.14Z" fill="#455A64"/>
<path d="M357.94 400.14H288.7V406.31H357.94V400.14Z" fill="#263238"/>
<path d="M296.15 406.31H430.22L447.75 315.25H313.68L296.15 406.31Z" fill="#455A64"/>
<path d="M363.79 360.78C363.676 361.818 363.785 362.869 364.109 363.862C364.432 364.855 364.964 365.768 365.668 366.54C366.371 367.312 367.231 367.925 368.19 368.339C369.149 368.753 370.186 368.958 371.23 368.94C373.451 368.898 375.58 368.045 377.216 366.542C378.851 365.039 379.881 362.99 380.11 360.78C380.224 359.741 380.115 358.689 379.791 357.695C379.466 356.702 378.934 355.788 378.229 355.016C377.524 354.244 376.663 353.631 375.703 353.218C374.743 352.805 373.705 352.601 372.66 352.62C370.439 352.658 368.309 353.51 366.674 355.014C365.039 356.518 364.013 358.57 363.79 360.78Z" fill="#EBEBEB"/>
<path d="M436.51 373.61L430.21 406.3H326.25L436.51 373.61Z" fill="#263238"/>
<path d="M118.85 428.39H93.71V432.31H118.85V428.39Z" fill="#455A64"/>
<path d="M118.85 428.39H93.71V430.98H118.85V428.39Z" fill="#263238"/>
<path d="M63.87 417.84C65.3976 420.097 67.5412 421.868 70.0461 422.943C72.551 424.017 75.3117 424.349 78 423.9C78.8714 423.734 79.7252 423.486 80.55 423.16C81.8027 422.675 82.9968 422.052 84.11 421.3L80.91 416.56C80.3173 416.973 79.688 417.331 79.03 417.63C73.03 420.34 69.25 415.63 68.5 414.55C65.06 409.7 63.82 398.64 67.32 394.38C67.55 394.07 68.55 393.57 72.61 394.43C73.35 394.6 74.2 394.79 75.16 395.05C75.9047 395.305 76.6765 395.473 77.46 395.55L77.56 392.7L77.84 389.87C77.58 389.82 77.17 389.7 76.64 389.55C74.7687 389.001 72.8557 388.607 70.92 388.37C67.92 388.06 64.82 388.37 62.92 390.77C57.25 397.72 59.55 411.77 63.87 417.84Z" fill="#455A64"/>
<path d="M80.93 416.56C80.3373 416.973 79.708 417.331 79.05 417.63L80.57 423.16C81.8226 422.675 83.0168 422.052 84.13 421.3L80.93 416.56Z" fill="#263238"/>
<path d="M70.94 388.37L72.63 394.43C73.37 394.6 74.22 394.79 75.18 395.05C75.9247 395.305 76.6965 395.473 77.48 395.55L77.58 392.7L77.86 389.87C77.6 389.82 77.19 389.7 76.66 389.55C74.7887 389.001 72.8757 388.607 70.94 388.37Z" fill="#263238"/>
<path d="M139.73 381C139.73 381 136.73 406.63 131.5 417.42C126.27 428.21 119.02 429.42 114.5 429.42H98.06C93.55 429.42 86.27 428.22 81.06 417.42C75.85 406.62 72.84 381 72.84 381H139.73Z" fill="#455A64"/>
<path d="M134.81 397.74C134.49 397.74 134.176 397.645 133.91 397.467C133.644 397.289 133.436 397.036 133.313 396.74C133.191 396.444 133.159 396.118 133.221 395.804C133.284 395.49 133.438 395.201 133.664 394.974C133.891 394.748 134.18 394.594 134.494 394.531C134.808 394.469 135.134 394.501 135.43 394.623C135.726 394.746 135.979 394.954 136.157 395.22C136.335 395.486 136.43 395.8 136.43 396.12C136.43 396.55 136.259 396.962 135.956 397.265C135.652 397.569 135.24 397.74 134.81 397.74ZM134.81 394.81C134.549 394.81 134.293 394.888 134.076 395.033C133.858 395.179 133.689 395.385 133.59 395.627C133.49 395.869 133.464 396.135 133.516 396.391C133.568 396.648 133.695 396.883 133.88 397.067C134.066 397.251 134.302 397.376 134.559 397.426C134.815 397.476 135.081 397.448 135.322 397.347C135.563 397.245 135.769 397.074 135.912 396.856C136.056 396.638 136.132 396.381 136.13 396.12C136.13 395.947 136.096 395.776 136.029 395.616C135.963 395.457 135.865 395.312 135.743 395.19C135.62 395.068 135.474 394.972 135.314 394.907C135.154 394.842 134.983 394.809 134.81 394.81ZM87.15 389.46C86.8292 389.462 86.515 389.369 86.2473 389.192C85.9795 389.015 85.7703 388.763 85.6462 388.467C85.5221 388.171 85.4885 387.845 85.5499 387.53C85.6113 387.215 85.7648 386.926 85.9909 386.698C86.2171 386.47 86.5057 386.315 86.8203 386.252C87.1348 386.189 87.461 386.22 87.7576 386.342C88.0542 386.465 88.3078 386.672 88.4863 386.939C88.6647 387.206 88.76 387.519 88.76 387.84C88.76 388.268 88.5907 388.678 88.2891 388.982C87.9874 389.286 87.5779 389.457 87.15 389.46ZM87.15 386.53C86.8881 386.528 86.6315 386.604 86.4129 386.748C86.1943 386.893 86.0236 387.099 85.9224 387.34C85.8213 387.582 85.7943 387.848 85.8449 388.105C85.8955 388.362 86.0215 388.598 86.2067 388.783C86.3919 388.969 86.628 389.094 86.885 389.145C87.1419 389.196 87.4082 389.169 87.6498 389.068C87.8914 388.966 88.0974 388.796 88.2417 388.577C88.386 388.358 88.462 388.102 88.46 387.84C88.4574 387.493 88.3185 387.162 88.0734 386.917C87.8283 386.671 87.4966 386.533 87.15 386.53ZM89.53 413.07C89.2092 413.072 88.895 412.979 88.6273 412.802C88.3595 412.625 88.1504 412.373 88.0262 412.077C87.9021 411.781 87.8685 411.455 87.9299 411.14C87.9913 410.825 88.1448 410.536 88.3709 410.308C88.5971 410.08 88.8857 409.925 89.2003 409.862C89.5148 409.799 89.841 409.83 90.1376 409.952C90.4342 410.075 90.6878 410.282 90.8663 410.549C91.0447 410.816 91.14 411.129 91.14 411.45C91.1374 411.877 90.9673 412.286 90.6662 412.589C90.3651 412.892 89.9571 413.065 89.53 413.07ZM89.53 410.14C89.2681 410.138 89.0115 410.214 88.7929 410.358C88.5743 410.503 88.4036 410.709 88.3024 410.95C88.2013 411.192 88.1743 411.458 88.2249 411.715C88.2755 411.972 88.4014 412.208 88.5867 412.393C88.7719 412.579 89.008 412.704 89.265 412.755C89.5219 412.806 89.7882 412.779 90.0298 412.678C90.2714 412.576 90.4774 412.406 90.6217 412.187C90.766 411.968 90.842 411.712 90.84 411.45C90.8374 411.103 90.6985 410.772 90.4534 410.527C90.2083 410.281 89.8766 410.143 89.53 410.14ZM76.39 385.23C76.0716 385.23 75.7603 385.136 75.4955 384.959C75.2308 384.782 75.0244 384.53 74.9026 384.236C74.7807 383.942 74.7488 383.618 74.8109 383.306C74.8731 382.994 75.0264 382.707 75.2516 382.482C75.4767 382.256 75.7636 382.103 76.0759 382.041C76.3882 381.979 76.7119 382.011 77.0061 382.133C77.3003 382.254 77.5518 382.461 77.7287 382.726C77.9056 382.99 78 383.302 78 383.62C77.9974 384.046 77.8269 384.454 77.5255 384.756C77.2242 385.057 76.8162 385.227 76.39 385.23ZM76.39 382.31C76.1285 382.31 75.8729 382.388 75.6556 382.533C75.4383 382.679 75.2692 382.885 75.1695 383.127C75.0699 383.369 75.0444 383.635 75.0961 383.891C75.1479 384.148 75.2746 384.383 75.4602 384.567C75.6458 384.751 75.882 384.876 76.1387 384.926C76.3954 384.976 76.6611 384.948 76.9021 384.847C77.1431 384.745 77.3486 384.574 77.4924 384.356C77.6362 384.138 77.712 383.881 77.71 383.62C77.71 383.447 77.6758 383.276 77.6093 383.116C77.5429 382.957 77.4455 382.812 77.3228 382.69C77.2001 382.568 77.0545 382.472 76.8944 382.407C76.7343 382.342 76.5629 382.309 76.39 382.31ZM98.83 395.26C98.5116 395.26 98.2003 395.166 97.9355 394.989C97.6708 394.812 97.4644 394.56 97.3426 394.266C97.2207 393.972 97.1888 393.648 97.2509 393.336C97.3131 393.024 97.4664 392.737 97.6916 392.512C97.9167 392.286 98.2036 392.133 98.5159 392.071C98.8282 392.009 99.1519 392.041 99.4461 392.163C99.7403 392.284 99.9918 392.491 100.169 392.756C100.346 393.02 100.44 393.332 100.44 393.65C100.437 394.076 100.267 394.484 99.9655 394.786C99.6642 395.087 99.2562 395.257 98.83 395.26ZM98.83 392.34C98.5681 392.338 98.3115 392.414 98.0929 392.558C97.8743 392.703 97.7036 392.909 97.6024 393.15C97.5013 393.392 97.4743 393.658 97.5249 393.915C97.5755 394.172 97.7015 394.408 97.8867 394.593C98.0719 394.779 98.308 394.904 98.565 394.955C98.8219 395.006 99.0882 394.979 99.3298 394.878C99.5714 394.776 99.7774 394.606 99.9217 394.387C100.066 394.168 100.142 393.912 100.14 393.65C100.137 393.303 99.9985 392.972 99.7534 392.727C99.5083 392.481 99.1766 392.343 98.83 392.34ZM116.33 412.39C116.012 412.388 115.702 412.292 115.438 412.114C115.175 411.936 114.97 411.684 114.85 411.389C114.729 411.095 114.699 410.771 114.762 410.46C114.825 410.148 114.98 409.862 115.205 409.638C115.431 409.414 115.718 409.262 116.03 409.2C116.342 409.139 116.665 409.171 116.958 409.294C117.252 409.416 117.503 409.622 117.679 409.887C117.856 410.151 117.95 410.462 117.95 410.78C117.947 411.208 117.776 411.617 117.472 411.919C117.168 412.221 116.758 412.39 116.33 412.39ZM116.33 409.47C116.069 409.47 115.813 409.548 115.596 409.693C115.378 409.839 115.209 410.045 115.11 410.287C115.01 410.529 114.984 410.795 115.036 411.051C115.088 411.308 115.215 411.543 115.4 411.727C115.586 411.911 115.822 412.036 116.079 412.086C116.335 412.136 116.601 412.108 116.842 412.007C117.083 411.905 117.289 411.734 117.432 411.516C117.576 411.298 117.652 411.041 117.65 410.78C117.65 410.607 117.616 410.436 117.549 410.276C117.483 410.117 117.385 409.972 117.263 409.85C117.14 409.728 116.994 409.632 116.834 409.567C116.674 409.502 116.503 409.469 116.33 409.47ZM105.63 385.23C105.312 385.23 105 385.136 104.736 384.959C104.471 384.782 104.264 384.53 104.143 384.236C104.021 383.942 103.989 383.618 104.051 383.306C104.113 382.994 104.266 382.707 104.492 382.482C104.717 382.256 105.004 382.103 105.316 382.041C105.628 381.979 105.952 382.011 106.246 382.133C106.54 382.254 106.792 382.461 106.969 382.726C107.146 382.99 107.24 383.302 107.24 383.62C107.24 384.047 107.07 384.457 106.768 384.758C106.467 385.06 106.057 385.23 105.63 385.23ZM105.63 382.31C105.368 382.31 105.113 382.388 104.896 382.533C104.678 382.679 104.509 382.885 104.41 383.127C104.31 383.369 104.284 383.635 104.336 383.891C104.388 384.148 104.515 384.383 104.7 384.567C104.886 384.751 105.122 384.876 105.379 384.926C105.635 384.976 105.901 384.948 106.142 384.847C106.383 384.745 106.589 384.574 106.732 384.356C106.876 384.138 106.952 383.881 106.95 383.62C106.95 383.447 106.916 383.276 106.849 383.116C106.783 382.957 106.685 382.812 106.563 382.69C106.44 382.568 106.294 382.472 106.134 382.407C105.974 382.342 105.803 382.309 105.63 382.31ZM103.63 405.94C103.312 405.938 103.002 405.842 102.738 405.664C102.475 405.486 102.27 405.234 102.15 404.939C102.029 404.645 101.999 404.321 102.062 404.01C102.125 403.698 102.28 403.412 102.505 403.188C102.731 402.964 103.018 402.812 103.33 402.75C103.642 402.689 103.965 402.721 104.258 402.844C104.552 402.966 104.803 403.172 104.979 403.437C105.156 403.701 105.25 404.012 105.25 404.33C105.247 404.758 105.076 405.167 104.772 405.469C104.468 405.771 104.058 405.94 103.63 405.94ZM103.63 403.01C103.369 403.01 103.114 403.087 102.897 403.232C102.68 403.377 102.51 403.584 102.41 403.825C102.311 404.066 102.284 404.331 102.335 404.588C102.386 404.844 102.512 405.079 102.697 405.263C102.881 405.448 103.116 405.574 103.372 405.625C103.629 405.676 103.894 405.649 104.135 405.55C104.376 405.45 104.582 405.28 104.728 405.063C104.873 404.846 104.95 404.591 104.95 404.33C104.951 404.156 104.918 403.983 104.852 403.822C104.787 403.66 104.69 403.514 104.567 403.39C104.444 403.266 104.298 403.168 104.137 403.101C103.977 403.034 103.804 403 103.63 403V403.01ZM87.63 425.21C87.3116 425.21 87.0003 425.116 86.7355 424.939C86.4708 424.762 86.2644 424.51 86.1426 424.216C86.0207 423.922 85.9888 423.598 86.0509 423.286C86.1131 422.974 86.2664 422.687 86.4916 422.462C86.7167 422.236 87.0036 422.083 87.3159 422.021C87.6282 421.959 87.9519 421.991 88.2461 422.113C88.5403 422.234 88.7918 422.441 88.9687 422.706C89.1456 422.97 89.24 423.282 89.24 423.6C89.2401 424.02 89.076 424.424 88.7827 424.725C88.4893 425.025 88.09 425.2 87.67 425.21H87.63ZM87.63 422.28C87.3713 422.29 87.1212 422.375 86.9108 422.526C86.7004 422.677 86.539 422.887 86.4467 423.129C86.3544 423.37 86.3353 423.634 86.3917 423.887C86.4482 424.139 86.5777 424.37 86.7641 424.55C86.9506 424.729 87.1857 424.85 87.4403 424.897C87.6949 424.944 87.9577 424.915 88.196 424.814C88.4343 424.713 88.6376 424.544 88.7805 424.328C88.9235 424.112 88.9998 423.859 89 423.6C89 423.426 88.9655 423.253 88.8986 423.093C88.8316 422.932 88.7335 422.786 88.6099 422.663C88.4862 422.54 88.3395 422.443 88.1782 422.378C88.0169 422.312 87.8442 422.279 87.67 422.28H87.63ZM126.79 387.65C126.472 387.65 126.16 387.556 125.896 387.379C125.631 387.202 125.424 386.95 125.303 386.656C125.181 386.362 125.149 386.038 125.211 385.726C125.273 385.414 125.426 385.127 125.652 384.902C125.877 384.676 126.164 384.523 126.476 384.461C126.788 384.399 127.112 384.431 127.406 384.553C127.7 384.674 127.952 384.881 128.129 385.146C128.306 385.41 128.4 385.722 128.4 386.04C128.4 386.46 128.236 386.864 127.943 387.165C127.649 387.465 127.25 387.64 126.83 387.65H126.79ZM126.79 384.72C126.529 384.718 126.272 384.794 126.054 384.938C125.836 385.081 125.665 385.287 125.563 385.528C125.462 385.769 125.434 386.035 125.484 386.291C125.534 386.548 125.659 386.784 125.843 386.97C126.027 387.155 126.262 387.282 126.519 387.334C126.775 387.386 127.041 387.36 127.283 387.26C127.525 387.161 127.731 386.992 127.877 386.774C128.022 386.557 128.1 386.301 128.1 386.04C128.1 385.698 127.968 385.37 127.731 385.124C127.494 384.878 127.171 384.733 126.83 384.72H126.79ZM81.89 401.55C81.572 401.548 81.2617 401.452 80.9983 401.274C80.7348 401.096 80.53 400.844 80.4097 400.549C80.2894 400.255 80.2589 399.931 80.3222 399.62C80.3854 399.308 80.5395 399.022 80.7651 398.798C80.9906 398.574 81.2775 398.422 81.5896 398.36C81.9016 398.299 82.2248 398.331 82.5184 398.454C82.812 398.576 83.0629 398.782 83.2393 399.047C83.4158 399.311 83.51 399.622 83.51 399.94C83.5074 400.368 83.3355 400.777 83.032 401.079C82.7285 401.381 82.3179 401.55 81.89 401.55ZM81.89 398.62C81.6289 398.62 81.3737 398.697 81.1566 398.842C80.9396 398.987 80.7704 399.194 80.6705 399.435C80.5706 399.676 80.5444 399.941 80.5954 400.197C80.6463 400.454 80.772 400.689 80.9566 400.873C81.1412 401.058 81.3764 401.184 81.6325 401.235C81.8885 401.286 82.1539 401.259 82.3951 401.16C82.6363 401.06 82.8425 400.89 82.9875 400.673C83.1326 400.456 83.21 400.201 83.21 399.94C83.21 399.59 83.0709 399.254 82.8234 399.007C82.5758 398.759 82.2401 398.62 81.89 398.62ZM114.89 396.73C114.572 396.73 114.26 396.636 113.996 396.459C113.731 396.282 113.524 396.03 113.403 395.736C113.281 395.442 113.249 395.118 113.311 394.806C113.373 394.494 113.526 394.207 113.752 393.982C113.977 393.756 114.264 393.603 114.576 393.541C114.888 393.479 115.212 393.511 115.506 393.633C115.8 393.754 116.052 393.961 116.229 394.226C116.406 394.49 116.5 394.802 116.5 395.12C116.5 395.333 116.458 395.544 116.376 395.741C116.293 395.937 116.173 396.116 116.021 396.266C115.87 396.415 115.69 396.533 115.492 396.613C115.295 396.693 115.083 396.733 114.87 396.73H114.89ZM114.89 393.8C114.629 393.8 114.374 393.877 114.157 394.022C113.94 394.167 113.77 394.374 113.67 394.615C113.571 394.856 113.544 395.121 113.595 395.378C113.646 395.634 113.772 395.869 113.957 396.053C114.141 396.238 114.376 396.364 114.632 396.415C114.889 396.466 115.154 396.439 115.395 396.339C115.636 396.24 115.842 396.07 115.988 395.853C116.133 395.636 116.21 395.381 116.21 395.12C116.209 394.945 116.173 394.773 116.105 394.612C116.037 394.451 115.938 394.305 115.813 394.182C115.689 394.06 115.542 393.963 115.38 393.897C115.218 393.832 115.045 393.799 114.87 393.8H114.89ZM103.65 422.8C103.332 422.798 103.022 422.702 102.758 422.524C102.495 422.346 102.29 422.094 102.17 421.799C102.049 421.505 102.019 421.181 102.082 420.87C102.145 420.558 102.3 420.272 102.525 420.048C102.751 419.824 103.038 419.672 103.35 419.61C103.662 419.549 103.985 419.581 104.278 419.704C104.572 419.826 104.823 420.032 104.999 420.297C105.176 420.561 105.27 420.872 105.27 421.19C105.262 421.618 105.085 422.025 104.778 422.323C104.471 422.621 104.058 422.785 103.63 422.78L103.65 422.8ZM103.65 419.88C103.389 419.88 103.133 419.958 102.916 420.103C102.698 420.249 102.529 420.455 102.43 420.697C102.33 420.939 102.304 421.205 102.356 421.461C102.408 421.718 102.535 421.953 102.72 422.137C102.906 422.321 103.142 422.446 103.399 422.496C103.655 422.546 103.921 422.518 104.162 422.417C104.403 422.315 104.609 422.144 104.752 421.926C104.896 421.708 104.972 421.451 104.97 421.19C104.973 421.014 104.94 420.839 104.873 420.675C104.807 420.512 104.708 420.364 104.583 420.24C104.458 420.116 104.309 420.018 104.145 419.953C103.981 419.887 103.806 419.856 103.63 419.86L103.65 419.88ZM117.21 428.62C116.891 428.624 116.578 428.533 116.311 428.359C116.044 428.185 115.835 427.936 115.709 427.642C115.584 427.349 115.549 427.025 115.608 426.712C115.667 426.399 115.818 426.11 116.041 425.882C116.264 425.655 116.55 425.499 116.862 425.434C117.175 425.369 117.499 425.398 117.795 425.518C118.09 425.638 118.343 425.842 118.522 426.106C118.701 426.37 118.798 426.681 118.8 427C118.797 427.425 118.627 427.832 118.325 428.132C118.023 428.432 117.615 428.6 117.19 428.6L117.21 428.62ZM117.21 425.69C116.947 425.684 116.689 425.757 116.468 425.898C116.246 426.04 116.073 426.245 115.968 426.486C115.864 426.727 115.834 426.994 115.883 427.252C115.931 427.511 116.055 427.749 116.24 427.936C116.424 428.123 116.66 428.251 116.917 428.303C117.175 428.356 117.442 428.33 117.685 428.229C117.928 428.129 118.135 427.958 118.28 427.739C118.425 427.52 118.502 427.263 118.5 427C118.501 426.827 118.468 426.655 118.403 426.494C118.338 426.333 118.242 426.187 118.12 426.064C117.999 425.94 117.854 425.842 117.694 425.774C117.535 425.707 117.363 425.671 117.19 425.67L117.21 425.69ZM126.85 404.5C126.532 404.5 126.22 404.406 125.956 404.229C125.691 404.052 125.484 403.8 125.363 403.506C125.241 403.212 125.209 402.888 125.271 402.576C125.333 402.264 125.486 401.977 125.712 401.752C125.937 401.526 126.224 401.373 126.536 401.311C126.848 401.249 127.172 401.281 127.466 401.403C127.76 401.524 128.012 401.731 128.189 401.996C128.366 402.26 128.46 402.572 128.46 402.89C128.452 403.316 128.277 403.722 127.971 404.02C127.666 404.317 127.256 404.483 126.83 404.48L126.85 404.5ZM126.85 401.57C126.589 401.568 126.332 401.644 126.114 401.788C125.896 401.931 125.725 402.137 125.623 402.378C125.522 402.619 125.494 402.885 125.544 403.141C125.594 403.398 125.719 403.634 125.903 403.82C126.087 404.005 126.322 404.132 126.579 404.184C126.835 404.236 127.101 404.21 127.343 404.11C127.585 404.011 127.791 403.842 127.937 403.624C128.082 403.407 128.16 403.151 128.16 402.89C128.163 402.714 128.13 402.539 128.064 402.376C127.999 402.213 127.901 402.065 127.777 401.94C127.653 401.815 127.506 401.716 127.343 401.649C127.18 401.582 127.006 401.549 126.83 401.55L126.85 401.57ZM128.29 419C127.969 419.002 127.655 418.909 127.387 418.732C127.12 418.555 126.91 418.303 126.786 418.007C126.662 417.711 126.629 417.385 126.69 417.07C126.751 416.755 126.905 416.466 127.131 416.238C127.357 416.01 127.646 415.855 127.96 415.792C128.275 415.729 128.601 415.76 128.898 415.882C129.194 416.005 129.448 416.212 129.626 416.479C129.805 416.746 129.9 417.059 129.9 417.38C129.9 417.808 129.731 418.218 129.429 418.522C129.127 418.826 128.718 418.997 128.29 419ZM128.29 416.07C128.028 416.07 127.773 416.148 127.556 416.293C127.338 416.439 127.169 416.645 127.07 416.887C126.97 417.129 126.944 417.395 126.996 417.651C127.048 417.908 127.175 418.143 127.36 418.327C127.546 418.511 127.782 418.636 128.039 418.686C128.295 418.736 128.561 418.708 128.802 418.607C129.043 418.505 129.249 418.334 129.392 418.116C129.536 417.898 129.612 417.641 129.61 417.38C129.605 417.033 129.463 416.703 129.216 416.46C128.969 416.216 128.637 416.08 128.29 416.08V416.07Z" fill="white"/>
</svg>
