<svg width="1856" height="482" viewBox="0 0 1856 482" fill="none" xmlns="http://www.w3.org/2000/svg">
<g clip-path="url(#clip0)">
<path d="M400.62 281.309L217.524 389.215L286.381 431.09L400.62 361.838V281.309Z" fill="url(#paint0_linear)"/>
<path d="M90.7655 411.763V332.846L269.167 440.755L200.31 479.405L90.7655 411.763Z" fill="url(#paint1_linear)"/>
<path d="M67.2916 241.046L200.31 162.129L156.492 133.139L-0.00012207 228.162V360.226L67.2916 398.88V241.046Z" fill="url(#paint2_linear)"/>
<path d="M291.076 54.2225L226.914 94.4861L400.62 199.172V121.865L291.076 54.2225Z" fill="url(#paint3_linear)"/>
<path d="M-0.00012207 200.782L269.167 42.9487L200.31 2.68518L-0.00012207 121.865V200.782Z" fill="url(#paint4_linear)"/>
<path d="M417.444 271.925C417.444 256.081 420.492 241.959 426.595 229.56C432.695 217.16 441.456 207.565 452.87 200.775C464.385 193.985 477.718 190.59 492.873 190.59C514.425 190.59 531.99 197.183 545.57 210.37C559.251 223.557 566.878 241.467 568.452 264.102L568.747 275.025C568.747 299.53 561.908 319.21 548.227 334.071C534.55 348.831 516.197 356.211 493.167 356.211C470.141 356.211 451.737 348.831 437.96 334.071C424.282 319.31 417.444 299.232 417.444 273.844V271.925ZM460.103 275.025C460.103 290.181 462.958 301.792 468.664 309.861C474.372 317.833 482.541 321.817 493.167 321.817C503.502 321.817 511.571 317.883 517.377 310.008C523.182 302.04 526.087 289.345 526.087 271.925C526.087 257.065 523.182 245.551 517.377 237.383C511.571 229.215 503.402 225.131 492.873 225.131C482.441 225.131 474.372 229.215 468.664 237.383C462.958 245.453 460.103 258 460.103 275.025ZM588.38 272.22C588.38 247.323 593.939 227.493 605.059 212.732C616.277 197.97 631.582 190.59 650.968 190.59C666.517 190.59 679.359 196.396 689.493 208.008V126.525H732.303V353.26H693.775L691.709 336.284C681.08 349.57 667.403 356.211 650.671 356.211C631.876 356.211 616.771 348.831 605.353 334.071C594.039 319.21 588.38 298.594 588.38 272.22ZM631.04 275.32C631.04 290.278 633.647 301.742 638.862 309.714C644.079 317.686 651.656 321.67 661.597 321.67C674.783 321.67 684.082 316.112 689.493 304.991V241.959C684.179 230.839 674.98 225.279 661.891 225.279C641.322 225.279 631.04 241.959 631.04 275.32ZM838.878 356.211C815.457 356.211 796.365 349.028 781.605 334.662C766.941 320.293 759.611 301.154 759.611 277.239V273.106C759.611 257.065 762.71 242.746 768.91 230.15C775.11 217.455 783.867 207.713 795.185 200.923C806.6 194.034 819.592 190.59 834.155 190.59C856.001 190.59 873.175 197.478 885.672 211.256C898.27 225.033 904.567 244.567 904.567 269.858V287.276H802.863C804.24 297.708 808.371 306.074 815.26 312.371C822.249 318.669 831.056 321.817 841.682 321.817C858.117 321.817 870.959 315.864 880.21 303.958L901.171 327.429C894.774 336.481 886.116 343.567 875.19 348.684C864.267 353.704 852.164 356.211 838.878 356.211ZM834.008 225.131C825.545 225.131 818.656 227.985 813.341 233.693C808.127 239.401 804.781 247.569 803.304 258.197H862.646V254.802C862.449 245.355 859.888 238.072 854.968 232.955C850.048 227.739 843.062 225.131 834.008 225.131ZM1074.47 353.26H927.152V324.033L996.678 249.93C1006.22 239.499 1013.26 230.396 1017.79 222.622C1022.41 214.847 1024.72 207.467 1024.72 200.48C1024.72 190.934 1022.31 183.455 1017.49 178.042C1012.67 172.531 1005.78 169.776 996.826 169.776C987.182 169.776 979.555 173.122 973.946 179.814C968.435 186.407 965.677 195.116 965.677 205.941H922.87C922.87 192.853 925.972 180.896 932.169 170.071C938.469 159.246 947.327 150.783 958.741 144.681C970.156 138.482 983.098 135.382 997.564 135.382C1019.7 135.382 1036.88 140.696 1049.08 151.324C1061.38 161.952 1067.53 176.96 1067.53 196.346C1067.53 206.975 1064.78 217.8 1059.27 228.822C1053.75 239.844 1044.31 252.686 1030.93 267.349L982.065 318.866H1074.47V353.26ZM1149.61 317.686H1243.64V353.26H1105.32V138.334H1149.61V317.686ZM1339.88 356.211C1316.46 356.211 1297.37 349.028 1282.61 334.662C1267.94 320.293 1260.61 301.154 1260.61 277.239V273.106C1260.61 257.065 1263.71 242.746 1269.91 230.15C1276.11 217.455 1284.87 207.713 1296.19 200.923C1307.6 194.034 1320.59 190.59 1335.16 190.59C1357 190.59 1374.17 197.478 1386.67 211.256C1399.27 225.033 1405.56 244.567 1405.56 269.858V287.276H1303.86C1305.24 297.708 1309.37 306.074 1316.26 312.371C1323.25 318.669 1332.05 321.817 1342.68 321.817C1359.12 321.817 1371.96 315.864 1381.21 303.958L1402.17 327.429C1395.77 336.481 1387.11 343.567 1376.19 348.684C1365.27 353.704 1353.16 356.211 1339.88 356.211ZM1335.01 225.131C1326.54 225.131 1319.66 227.985 1314.34 233.693C1309.12 239.401 1305.78 247.569 1304.3 258.197H1363.64V254.802C1363.45 245.355 1360.89 238.072 1355.97 232.955C1351.05 227.739 1344.06 225.131 1335.01 225.131ZM1522.48 353.26C1520.51 349.423 1519.08 344.65 1518.2 338.941C1507.86 350.456 1494.43 356.211 1477.9 356.211C1462.25 356.211 1449.26 351.686 1438.93 342.631C1428.69 333.579 1423.57 322.162 1423.57 308.387C1423.57 291.461 1429.82 278.469 1442.32 269.415C1454.92 260.362 1473.08 255.786 1496.79 255.688H1516.42V246.536C1516.42 239.155 1514.51 233.25 1510.67 228.822C1506.93 224.393 1500.98 222.179 1492.81 222.179C1485.62 222.179 1479.96 223.901 1475.83 227.346C1471.8 230.79 1469.78 235.514 1469.78 241.516H1427.12C1427.12 232.266 1429.97 223.704 1435.68 215.831C1441.39 207.959 1449.46 201.808 1459.89 197.38C1470.32 192.853 1482.03 190.59 1495.02 190.59C1514.7 190.59 1530.3 195.559 1541.81 205.499C1553.43 215.339 1559.23 229.215 1559.23 247.126V316.356C1559.33 331.511 1561.45 342.975 1565.58 350.75V353.26H1522.48ZM1487.2 323.589C1493.49 323.589 1499.3 322.212 1504.62 319.457C1509.93 316.603 1513.86 312.813 1516.42 308.09V280.634H1500.48C1479.13 280.634 1467.76 288.015 1466.38 302.775L1466.23 305.285C1466.23 310.6 1468.11 314.979 1471.85 318.425C1475.58 321.867 1480.7 323.589 1487.2 323.589ZM1681.75 233.545C1675.95 232.758 1670.83 232.364 1666.4 232.364C1650.26 232.364 1639.68 237.826 1634.66 248.75V353.26H1592V193.542H1632.3L1633.48 212.584C1642.04 197.921 1653.9 190.59 1669.06 190.59C1673.78 190.59 1678.21 191.229 1682.34 192.509L1681.75 233.545ZM1741.68 193.542L1743.01 211.994C1754.43 197.724 1769.73 190.59 1788.92 190.59C1805.84 190.59 1818.44 195.559 1826.71 205.499C1834.97 215.438 1839.21 230.298 1839.4 250.078V353.26H1796.74V251.111C1796.74 242.058 1794.77 235.514 1790.84 231.479C1786.9 227.346 1780.36 225.279 1771.2 225.279C1759.2 225.279 1750.2 230.396 1744.19 240.631V353.26H1701.53V193.542H1741.68Z" fill="url(#paint5_linear)"/>
</g>
<defs>
<linearGradient id="paint0_linear" x1="375.582" y1="282.92" x2="249.831" y2="411.374" gradientUnits="userSpaceOnUse">
<stop stop-color="#0AE6FE"/>
<stop offset="1" stop-color="#FF82D5"/>
</linearGradient>
<linearGradient id="paint1_linear" x1="90.7655" y1="315.131" x2="239.313" y2="475.16" gradientUnits="userSpaceOnUse">
<stop stop-color="#C85395"/>
<stop offset="1" stop-color="#752BBE"/>
</linearGradient>
<linearGradient id="paint2_linear" x1="28.1685" y1="357.006" x2="174.42" y2="158.052" gradientUnits="userSpaceOnUse">
<stop stop-color="#00DAF8"/>
<stop offset="1" stop-color="#FBB1E6"/>
</linearGradient>
<linearGradient id="paint3_linear" x1="313.767" y1="54.2225" x2="313.767" y2="199.172" gradientUnits="userSpaceOnUse">
<stop stop-color="#EE26B9"/>
<stop offset="1" stop-color="#9D1A95"/>
</linearGradient>
<linearGradient id="paint4_linear" x1="187.791" y1="47.7803" x2="19.1631" y2="152.893" gradientUnits="userSpaceOnUse">
<stop stop-color="#6A1969"/>
<stop offset="1" stop-color="#2125B8"/>
</linearGradient>
<linearGradient id="paint5_linear" x1="1043.06" y1="107.004" x2="1035.22" y2="396.192" gradientUnits="userSpaceOnUse">
<stop stop-color="#F8AEE5"/>
<stop offset="1" stop-color="#BB2DDF"/>
</linearGradient>
<clipPath id="clip0">
<rect width="1856" height="482" fill="white"/>
</clipPath>
</defs>
</svg>
