<svg width="178" height="41" viewBox="0 0 178 41" fill="none" xmlns="http://www.w3.org/2000/svg">
<path d="M75.3465 40.7541C75.1423 40.5532 74.9854 39.9566 74.9978 39.4283C75.0158 38.6582 75.0682 38.5883 75.2621 39.0755C75.4931 39.656 75.6269 37.6451 75.7248 32.1177C75.7468 30.8767 75.8408 29.9077 75.9337 29.9642C76.1319 30.0848 76.364 27.1515 76.3261 25.0051C76.3115 24.1824 76.4176 23.5093 76.5618 23.5093C76.7059 23.5093 76.9203 23.0032 77.0382 22.3847C77.1561 21.7662 77.3383 21.0222 77.4431 20.7314C77.5662 20.3899 77.2984 20.5094 76.6869 21.0687C76.1662 21.545 75.5681 21.9347 75.3577 21.9347C75.1474 21.9347 74.9753 22.0549 74.9753 22.2018C74.9753 22.8466 72.4959 23.5566 70.7338 23.4164L68.9474 23.2743L67.7369 25.7537C66.511 28.2647 65.6965 28.9241 65.6965 27.4056V26.5782L64.2923 27.7993C61.1258 30.5528 57.3251 32.6929 56.8749 31.9759C56.6201 31.5702 56.9041 31.2865 57.6821 31.1697C58.6214 31.0286 63.7476 27.9181 63.0408 27.9181C62.9405 27.9181 63.641 27.1355 64.5975 26.179C65.5539 25.2225 66.3364 24.2467 66.3364 24.0105C66.3364 23.3083 68.5527 16.7931 68.9118 16.4397C69.4643 15.8959 69.8963 16.9297 69.6947 18.3132C69.5937 19.006 68.9337 20.6891 68.2281 22.0535C67.5224 23.4178 66.9887 24.7572 67.042 25.0298C67.0994 25.3229 67.4654 24.9141 67.9376 24.0295L68.7361 22.5336L70.2163 22.7307C72.3699 23.0175 75.3362 21.4738 77.4692 18.9561C77.7381 18.6388 77.8097 18.0813 77.6735 17.3668C77.5391 16.6613 77.5878 16.2662 77.8093 16.2662C77.9993 16.2662 78.0713 16.052 77.9693 15.7902C77.7701 15.2794 78.3727 13.2455 79.69 9.98288C80.8955 6.99709 82.0423 6.06947 83.2904 7.0707C83.9267 7.58122 83.9404 7.72268 83.5862 10.1253C83.1213 13.279 81.8545 15.8827 79.633 18.2509C77.9827 20.0101 77.9446 20.0951 77.4244 23.178C76.6627 27.692 76.7847 28.1485 77.8917 24.9264C78.9812 21.7553 80.861 19.154 81.8054 19.5107C82.565 19.7976 82.462 21.078 81.5345 22.8794C80.3256 25.2275 80.534 26.1646 81.9373 24.6902C82.7199 23.868 83.2538 22.6105 83.5752 20.8325C83.7762 19.7209 83.8953 19.586 84.5885 19.6844C86.5627 19.9649 88.1066 19.8132 90.2634 19.1268C91.5447 18.719 92.6827 18.4735 92.7923 18.5813C92.9018 18.6891 92.4968 19.2398 91.8923 19.8049C90.085 21.4945 89.2373 23.8273 90.4323 23.8227C91.1962 23.8195 92.8157 21.967 93.0281 20.8529C93.1828 20.041 93.4077 19.7303 93.8408 19.7303C94.1701 19.7303 94.4926 19.887 94.5575 20.0786C94.7116 20.5335 97.8173 20.4937 99.8211 20.0111C100.674 19.8056 101.94 19.2333 102.635 18.7392C103.881 17.8528 105.167 17.5757 105.509 18.12C105.733 18.4758 105.187 18.8835 103.772 19.4176C102.163 20.0248 100.892 20.9549 100.892 21.5252C100.892 22.2738 103.235 21.8574 104.675 20.8529C106.608 19.5046 106.772 19.3231 107.76 17.4423C108.729 15.5974 109.3 15.2187 109.672 16.1735C109.805 16.5158 109.514 17.224 108.868 18.1256C108.114 19.178 107.935 19.6657 108.168 20.0291C108.517 20.5732 108.802 20.598 110.651 20.2441C111.761 20.0316 115.502 18.4857 117.334 17.4824C119.717 16.1771 120.348 15.809 121.099 15.2846C121.566 14.9584 122.11 14.6916 122.307 14.6916C122.504 14.6916 122.752 14.2665 122.857 13.7469C122.973 13.1792 123.257 12.7922 123.569 12.7773C123.855 12.7636 123.926 12.6864 123.726 12.6058C123.471 12.5027 123.45 12.0809 123.654 11.1855C124.558 7.22681 127.001 5.92469 126.53 9.65296C126.497 9.91276 126.456 10.4486 126.44 10.8436C126.423 11.2387 125.777 12.2538 125.004 13.0994C123.816 14.4006 123.579 14.883 123.463 16.2388C123.312 18.0125 123.759 18.4265 124.088 16.8173C124.443 15.0817 124.6 14.6916 124.945 14.6916C125.142 14.6916 125.195 15.0177 125.076 15.4854C124.534 17.6127 126.476 18.0811 130.474 16.7866C132.411 16.1591 132.73 15.9468 132.942 15.1426C133.31 13.7491 134.812 12.2189 135.92 12.1091C136.808 12.0211 136.878 12.0928 136.964 13.1831C137.041 14.1498 136.904 14.4623 136.172 14.9949C135.686 15.3488 135.212 15.6025 135.12 15.5587C134.819 15.4155 133.911 16.4162 134.085 16.6989C134.28 17.0146 138.29 16.6766 138.793 16.3021C138.977 16.1656 140.063 15.7331 141.207 15.3411C142.351 14.9491 143.649 14.4974 144.092 14.3373C144.535 14.1772 145.09 13.6167 145.327 13.0918C145.691 12.2818 145.907 12.152 146.758 12.2336C148.202 12.372 148.215 13.2047 146.788 14.073C145.839 14.65 145.711 14.8374 146.112 15.0584C146.442 15.2401 148.03 14.8625 150.866 13.9277C156.094 12.205 158.999 11.3836 161.589 10.8957C163.297 10.5739 163.642 10.5897 164.069 11.0096C164.647 11.579 164.727 12.4872 164.199 12.4872C163.999 12.4872 163.656 12.2464 163.437 11.9522C162.993 11.3538 162.625 11.4116 157.045 12.9566C155.461 13.3952 153.354 13.9691 152.361 14.232C151.369 14.4949 149.858 15.0595 149.002 15.4868C146.924 16.5244 145.384 16.4988 145.015 15.4202C144.921 15.1484 144.494 15.1998 143.447 15.6089C137.891 17.7781 134.357 18.3917 133.225 17.3832C132.697 16.913 132.492 16.8809 132.094 17.206C131.827 17.4243 131.608 17.4974 131.608 17.3684C131.608 17.2393 131.394 17.3087 131.132 17.5225C130.871 17.7363 130.449 17.8329 130.196 17.7372C129.943 17.6416 129.563 17.7674 129.353 18.0169C128.907 18.5454 124.889 18.6703 124.889 18.1557C124.889 17.4195 124.27 17.9275 123.929 18.9429C123.665 19.7298 123.37 20.0451 122.898 20.0451C122.273 20.0451 122.247 19.9176 122.417 17.7037L122.597 15.3623L120.821 16.4802C119.446 17.3458 112.961 20.5845 112.091 20.8399C112.003 20.8657 111.677 20.9967 111.367 21.131C111.057 21.2653 110.376 21.3135 109.855 21.2382C109.333 21.1629 108.867 21.2007 108.819 21.3222C108.658 21.7279 107.291 21.0173 107.291 20.5277C107.291 19.7964 106.897 19.9355 105.404 21.1929C103.932 22.4331 102.106 23.2006 101.188 22.9646C100.873 22.8834 100.385 22.3401 100.104 21.7573C99.6439 20.8028 99.5127 20.7278 98.782 21.0013C97.5189 21.4739 94.9281 21.3732 94.3762 20.83C93.8103 20.273 93.5721 20.5537 93.4039 21.9759C93.1975 23.7208 90.6279 25.3479 89.5148 24.4387C89.2451 24.2184 89.0918 23.8656 89.174 23.6546C89.2562 23.4437 89.1764 23.1259 88.9959 22.9486C88.6875 22.6451 89.6138 20.9784 90.4934 20.254C90.6709 20.1079 90.4572 20.0795 90.0135 20.1904C87.2067 20.8915 84.5741 20.9559 84.5741 20.3234C84.5741 20.1704 84.4501 20.0452 84.2985 20.0452C84.147 20.0452 84.0871 20.3754 84.1655 20.7791C84.5253 22.6316 82.4569 26.3435 81.0649 26.3435C80.2982 26.3435 79.8979 23.6998 80.5204 22.7474C80.7559 22.387 81.1143 21.5961 81.3169 20.9899L81.6851 19.8877L81.0163 20.672C80.0607 21.7926 78.8256 24.2914 78.3048 26.1578C76.8819 31.2574 76.6458 32.6466 76.3582 37.6089C76.1673 40.902 76.006 41.4032 75.3465 40.7541L75.3465 40.7541ZM79.8294 16.6438C80.392 15.8299 80.9562 15.0931 81.0831 15.0064C81.4993 14.7221 82.5813 11.1057 82.7554 9.41678C82.9061 7.95565 82.8568 7.76347 82.3317 7.76347C82.005 7.76347 81.6462 8.0469 81.5345 8.39331C81.4228 8.73972 81.1971 9.02313 81.033 9.02313C80.8689 9.02313 80.7346 9.21835 80.7346 9.45695C80.7346 9.69555 80.5186 10.0672 80.2546 10.2828C79.9907 10.4984 79.7747 11.0155 79.7747 11.4319C79.7747 12.0599 78.9709 15.5636 78.2773 17.959C78.0124 18.874 78.6772 18.3107 79.8294 16.6438ZM108.71 16.9282C108.51 16.7305 107.938 17.5303 107.946 17.9982C107.95 18.1714 108.161 18.0401 108.418 17.7063C108.675 17.3726 108.806 17.0224 108.71 16.9282ZM135.008 14.7941C135.808 14.278 136.59 12.8763 136.259 12.5506C136.042 12.3372 133.848 14.5581 133.848 14.9909C133.848 15.4435 134.056 15.4082 135.008 14.7941ZM146.646 13.1171C146.646 12.9438 146.583 12.8021 146.505 12.8021C146.428 12.8021 146.275 12.9438 146.166 13.1171C146.058 13.2903 146.121 13.432 146.308 13.432C146.494 13.432 146.646 13.2903 146.646 13.1171ZM125.628 10.1253L125.826 8.86567L125.205 9.65297C124.863 10.086 124.58 10.7675 124.576 11.1674C124.572 11.5707 124.427 11.8079 124.249 11.6999C123.88 11.4753 123.852 11.6081 124.123 12.3038C124.422 13.0701 125.385 11.6759 125.628 10.1253ZM2.13389 38.7145C0.629414 37.4093 -0.00714593 35.9265 6.04627e-05 33.7441C0.00823552 31.2685 1.32894 26.9515 3.16309 23.405C3.41669 22.9147 3.62419 22.3124 3.62419 22.0666C3.62419 21.8209 3.6844 21.6198 3.758 21.6198C3.8316 21.6198 4.13381 21.5284 4.4296 21.4167C4.88031 21.2464 4.91122 21.3102 4.62052 21.8103C4.42975 22.1385 3.76042 23.6825 3.13313 25.2413C2.50584 26.8002 1.87502 28.359 1.7313 28.7054C0.561422 31.5251 0.499779 34.2392 1.55813 36.3295C3.03731 39.2511 5.20028 39.5756 9.27153 37.487C11.6098 36.2874 12.301 35.7409 15.7976 32.3269C18.6112 29.5799 20.5199 27.0099 19.9873 26.6859C19.7918 26.567 19.5453 26.0437 19.4394 25.5229C19.1991 24.3403 19.8979 23.6659 21.0649 23.9542C21.6744 24.1048 21.9212 24.0157 22.0579 23.5957C22.158 23.2884 22.3708 22.7535 22.5308 22.4071C22.6907 22.0607 23.2592 20.5018 23.794 18.943C24.3288 17.3842 24.8375 15.9079 24.9244 15.6624C25.0199 15.3928 25.1973 15.3305 25.3725 15.505C25.6477 15.7792 24.6189 20.8518 23.6213 24.1391C23.3848 24.9185 23.0921 26.0877 22.9709 26.7372L22.7506 27.9181H24.0563C26.0739 27.9181 28.6717 26.341 29.0413 24.8917C29.2793 23.9583 31.12 19.9525 31.4131 19.7303C31.5273 19.6437 31.8624 19.1477 32.1578 18.6281C32.8754 17.3657 33.9164 17.2155 34.3404 18.3132C34.6705 19.1677 34.4662 20.675 34.0204 20.675C33.8826 20.675 33.6743 21.0497 33.5575 21.5077C33.4407 21.9656 32.4732 23.2341 31.4075 24.3264C29.5232 26.2578 29.4653 26.3683 29.3048 28.336C29.1433 30.3155 29.1648 30.3859 30.2916 31.5794C30.9251 32.2503 31.4473 32.6222 31.4521 32.4057C31.4569 32.1892 31.8418 32.012 32.3077 32.012C34.298 32.012 37.579 28.1482 38.8331 24.3277C39.7746 21.4595 41.1203 18.9703 41.799 18.8417C42.7467 18.6622 42.173 20.6954 40.2117 24.468C38.4124 27.9288 37.9029 29.9879 38.3133 32.1407C38.6029 33.6603 39.4173 33.6156 40.3374 32.0297C41.0101 30.8702 41.033 29.8076 40.3854 29.8076C39.9738 29.8076 40.0422 28.58 40.5307 27.1994C41.1599 25.421 41.5406 25.1824 42.1907 26.1589C42.6612 26.8657 42.6913 27.2264 42.3972 28.6331C42.0796 30.152 42.1061 30.3245 42.7383 30.8525L43.4238 31.425L42.6024 31.2221C41.9032 31.0493 41.7493 31.1438 41.5673 31.8576C41.2871 32.9565 39.986 34.2164 39.1315 34.2164C37.9699 34.2164 37.4286 33.3675 37.4693 31.6097C37.4897 30.7292 37.4445 29.9104 37.3689 29.79C37.2934 29.6697 36.5296 30.2622 35.6717 31.1066C34.4093 32.3491 33.9018 32.6419 33.0102 32.6419C32.4044 32.6419 31.7363 32.8115 31.5256 33.0189C31.2281 33.3117 30.9457 33.2539 30.2617 32.7603C28.9081 31.7835 28.1958 30.2039 28.3976 28.6267C28.4918 27.8906 28.5266 27.2883 28.4751 27.2883C28.4235 27.2883 27.8143 27.5523 27.1214 27.875C25.6784 28.5469 23.6539 29.0699 24.4116 28.5751C24.7549 28.3508 24.57 28.2847 23.7249 28.3293C22.8132 28.3776 22.6194 28.4905 22.8099 28.8629C23.3228 29.8653 23.4471 31.5147 23.0965 32.6665C22.7036 33.957 22.2313 34.3208 21.5146 33.8849C20.9736 33.5558 20.9167 29.3523 21.4461 28.8312C21.6813 28.5998 21.7467 28.768 21.6635 29.3901L21.5445 30.28L21.8501 29.3605C22.0949 28.6238 22.0469 28.3597 21.6088 28.0321C20.8511 27.4655 20.6599 27.5015 20.2301 28.2919C19.8111 29.0625 19.9184 28.9215 17.6846 31.6354C15.7175 34.0252 11.9125 37.1742 9.43285 38.4644C8.01861 39.2003 7.13479 39.426 5.38397 39.4984C3.32278 39.5837 3.06371 39.5212 2.13389 38.7145H2.13389ZM22.5018 32.1509C22.5018 31.9013 22.6458 31.6971 22.8218 31.6971C22.9978 31.6971 23.1418 31.547 23.1418 31.3636C23.1418 31.1802 22.9978 31.1177 22.8218 31.2247C22.6442 31.3328 22.4997 31.0959 22.4969 30.6922C22.493 30.1072 22.4314 30.0574 22.1819 30.4374C21.7674 31.0687 21.7674 33.0515 22.1819 32.7993C22.3579 32.6923 22.5018 32.4005 22.5018 32.1509ZM41.4091 28.6267C41.2901 27.7579 41.2158 27.6391 41.1281 28.1772C41.0183 28.8513 41.216 29.8076 41.4652 29.8076C41.5233 29.8076 41.4981 29.2762 41.4091 28.6267ZM21.8619 26.8345C21.8619 26.7581 21.7179 26.608 21.542 26.501C21.366 26.3939 21.222 26.4564 21.222 26.6399C21.222 26.8233 21.366 26.9734 21.542 26.9734C21.7179 26.9734 21.8619 26.9109 21.8619 26.8345ZM20.6439 24.8446C20.2233 24.5191 20.0802 24.5374 19.8476 24.9464C19.6484 25.2968 19.7392 25.5716 20.1531 25.8708C20.6596 26.2371 20.7711 26.2228 20.9494 25.769C21.0722 25.4563 20.9478 25.0797 20.6439 24.8446ZM32.1307 22.3671C33.3373 20.7595 34.1444 18.4679 33.5023 18.4728C33.1008 18.476 31.9658 20.2187 31.0046 22.3082C29.7099 25.1226 30.0492 25.1403 32.1307 22.367V22.3671ZM48.3604 33.0739C47.8884 32.8287 47.1927 32.1351 46.8145 31.5327C46.0479 30.312 46.0516 30.3138 45.2242 30.7496C44.5581 31.1005 42.6593 30.83 42.6593 30.3843C42.6593 30.2251 42.8393 30.1248 43.0593 30.1613C43.6486 30.2592 45.8554 29.7704 45.8805 29.5364C46.1357 27.1596 46.5366 26.1866 47.8772 24.6902C48.402 24.1044 48.9664 23.8242 49.6215 23.8242C50.6264 23.8242 50.9786 24.2601 50.9779 25.5033C50.9773 26.3814 49.7171 27.9561 48.0073 29.2148C46.9791 29.9717 47.0663 30.7828 48.2973 31.913C48.9021 32.4682 49.2283 32.55 49.9855 32.3362C51.765 31.8339 57.0016 27.5911 57.479 26.2648C57.5881 25.9617 57.9147 25.7137 58.2047 25.7137C58.6014 25.7137 58.6791 25.8891 58.5186 26.4223C58.4013 26.812 58.2647 27.2725 58.2152 27.4457C57.5457 29.7877 57.3225 30.3911 56.9303 30.9191C56.3016 31.7653 55.8941 31.2652 56.4817 30.3685C56.7405 29.9734 57.0355 29.3276 57.1371 28.9334C57.282 28.3715 56.8614 28.6171 55.19 30.0703C52.8993 32.062 51.4002 32.9568 50.3543 32.9568C49.9936 32.9568 49.6985 33.0985 49.6985 33.2717C49.6985 33.6702 49.4323 33.6309 48.3604 33.0739ZM50.1041 25.5184C50.264 24.6951 49.7702 24.5404 48.7306 25.0881C48.1068 25.4167 46.8188 27.9256 46.8188 28.8123C46.8188 29.5469 49.9269 26.4306 50.1041 25.5184ZM7.99105 30.6029C7.88804 30.3387 7.95171 30.1225 8.13255 30.1225C8.31339 30.1225 8.37599 29.9866 8.27165 29.8204C8.16732 29.6543 8.25838 29.2403 8.47402 28.9004C8.78402 28.4118 8.78123 27.7664 8.46073 25.8172C7.97491 22.8626 7.99102 22.9276 7.49403 21.9177C6.9686 20.8501 5.90574 20.193 5.44224 20.6492C5.25181 20.8366 4.90761 20.99 4.67734 20.99C4.33761 20.99 4.3346 20.8676 4.66134 20.3408C4.97299 19.8383 5.27623 19.7324 6.00289 19.8721C7.07086 20.0775 8.10363 20.8833 8.10363 21.5111C8.10363 21.7441 8.25961 21.9347 8.45025 21.9347C8.64089 21.9347 8.73444 22.1118 8.65814 22.3283C8.58183 22.5449 8.7196 23.2874 8.9643 23.9784C9.44223 25.3281 9.44183 28.4563 8.96366 29.095C8.80323 29.3093 8.7515 29.6887 8.84872 29.938C8.94594 30.1874 8.83488 30.5471 8.60192 30.7374C8.28492 30.9963 8.13124 30.9625 7.99106 30.6029H7.99105ZM175.363 11.6773C174.331 11.1263 174.213 10.5977 175.123 10.5977C175.475 10.5977 175.763 10.7296 175.763 10.8907C175.763 11.0519 176.075 11.229 176.458 11.2844C177.317 11.4088 177.643 12.1772 176.829 12.1597C176.507 12.1525 175.847 11.9357 175.363 11.6773ZM143.607 2.09498C143.383 1.73828 143.67 1.15023 144.068 1.15023C144.213 1.15023 144.407 1.43365 144.499 1.78006C144.675 2.43963 143.978 2.68555 143.607 2.09498ZM144.247 0.337848C144.599 0.0752518 145.175 -0.0638839 145.527 0.0286471C145.878 0.121178 146.499 0.198811 146.905 0.201179C147.315 0.203578 147.556 0.345535 147.446 0.5204C147.338 0.693609 146.429 0.830804 145.428 0.825293C143.731 0.815935 143.651 0.782588 144.247 0.337848Z" fill="black"/>
</svg>
